<?xml version="1.0" encoding="UTF-8" standalone="yes"?>
<svg xmlns="http://www.w3.org/2000/svg" xmlns:xlink="http://www.w3.org/1999/xlink" width="1939.273pt" height="180.281pt" version="1.1" viewBox="-1338.748 145.061 1939.273 180.281">
  <!--
	Exported with Concepts: Smarter Sketching
	Version: 973 on iOS 14.4
	https://concepts.app/
	-->
  <title>Untitled 3</title>
  <desc>Drawing exported from Concepts: Smarter Sketching</desc>
  <defs></defs>
  <g id="Pen" opacity="1.000">
    <path id="STROKE_3b270e93-e1f1-4c81-897e-c4e1f46e6541" opacity="1.000" fill="none" stroke="#474444" stroke-width="9.485" stroke-opacity="1.000" stroke-linecap="round" stroke-linejoin="round" d="M -969.870 173.164 L -969.877 173.887 "></path>
    <path id="STROKE_27611067-4290-407e-ab7a-8366cf24a409" opacity="1.000" fill="none" stroke="#474444" stroke-width="9.485" stroke-opacity="1.000" stroke-linecap="round" stroke-linejoin="round" d="M -968.093 287.005 L -956.592 287.109 L -942.276 287.240 L -927.960 287.371 L -913.644 287.501 L -899.328 287.632 L -885.012 287.763 L -870.696 287.893 L -856.380 288.024 L -842.064 288.154 L -827.748 288.285 L -813.432 288.416 L -799.116 288.546 L -784.800 288.677 L -770.484 288.808 L -756.168 288.938 L -741.852 289.069 L -727.536 289.200 "></path>
    <path id="STROKE_0f82afee-387a-4303-981f-5dfb8acfd814" opacity="1.000" fill="none" stroke="#474444" stroke-width="9.485" stroke-opacity="1.000" stroke-linecap="round" stroke-linejoin="round" d="M -969.863 172.450 L -955.547 172.581 L -941.231 172.712 L -926.915 172.842 L -912.599 172.973 L -898.283 173.104 L -883.967 173.234 L -869.651 173.365 L -855.335 173.495 L -841.019 173.626 L -826.703 173.757 L -812.387 173.887 L -798.071 174.018 L -783.755 174.149 L -769.439 174.279 L -755.123 174.410 L -740.807 174.540 L -726.491 174.671 L -712.174 174.802 L -697.858 174.932 L -683.542 175.063 L -669.226 175.194 L -654.910 175.324 L -640.594 175.455 L -626.278 175.585 L -611.962 175.716 L -597.646 175.847 L -583.330 175.977 L -569.014 176.108 L -554.698 176.239 L -540.382 176.369 L -526.066 176.500 L -511.750 176.631 "></path>
    <path id="STROKE_ddff7e3b-6dce-439a-9716-5d097ab9c031" opacity="1.000" fill="none" stroke="#474444" stroke-width="9.485" stroke-opacity="1.000" stroke-linecap="round" stroke-linejoin="round" d="M -727.536 289.200 L -713.220 289.330 L -698.904 289.461 L -684.587 289.591 L -670.271 289.722 L -655.955 289.853 L -641.639 289.983 L -627.323 290.114 L -613.007 290.245 L -598.691 290.375 L -584.375 290.506 L -570.059 290.636 L -555.743 290.767 L -541.427 290.898 L -527.111 291.028 "></path>
    <path id="STROKE_fa5f9e49-ecdb-401d-a915-8c2685ca4a66" opacity="1.000" fill="none" stroke="#474444" stroke-width="9.485" stroke-opacity="1.000" stroke-linecap="round" stroke-linejoin="round" d="M -527.111 291.028 L -512.795 291.159 L -498.479 291.289 L -484.163 291.420 L -469.847 291.551 L -455.531 291.681 L -441.215 291.812 L -426.898 291.943 L -412.582 292.073 L -398.266 292.204 L -383.950 292.335 L -369.634 292.465 L -355.318 292.596 L -341.002 292.726 L -326.686 292.857 L -312.370 292.988 L -298.054 293.118 L -283.738 293.249 L -269.422 293.380 L -255.106 293.510 L -240.790 293.641 L -226.474 293.771 L -212.158 293.902 L -197.842 294.033 L -183.526 294.163 L -169.209 294.294 L -154.893 294.425 L -140.577 294.555 L -126.261 294.686 L -111.945 294.816 L -97.629 294.947 L -83.313 295.078 L -68.997 295.208 L -56.360 295.324 "></path>
    <path id="STROKE_46a91541-f09e-4f05-b11f-ba7859c9f037" opacity="1.000" fill="none" stroke="#474444" stroke-width="9.485" stroke-opacity="1.000" stroke-linecap="round" stroke-linejoin="round" d="M -511.750 176.631 L -497.434 176.761 L -483.118 176.892 L -468.802 177.022 L -454.486 177.153 L -440.170 177.284 L -425.853 177.414 L -411.537 177.545 L -397.221 177.676 L -382.905 177.806 L -368.589 177.937 L -354.273 178.067 L -339.957 178.198 L -325.641 178.329 L -311.325 178.459 L -297.009 178.590 L -282.693 178.721 L -268.377 178.851 L -254.061 178.982 L -239.745 179.112 L -225.429 179.243 L -211.113 179.374 L -196.797 179.504 L -182.481 179.635 L -168.164 179.766 L -153.848 179.896 L -139.532 180.027 L -125.216 180.157 L -110.900 180.288 L -96.584 180.419 L -82.268 180.549 L -67.952 180.680 L -56.988 180.780 "></path>
    <path id="STROKE_df02b030-7e04-4a8d-9360-66ae807cb123" opacity="1.000" fill="none" stroke="#474444" stroke-width="9.485" stroke-opacity="1.000" stroke-linecap="round" stroke-linejoin="round" d="M -53.636 180.811 L -39.320 180.941 L -25.004 181.072 L -10.688 181.202 L 3.628 181.333 L 17.944 181.464 L 32.260 181.594 L 46.576 181.725 L 60.892 181.856 L 75.208 181.986 L 89.524 182.117 L 103.840 182.248 L 118.156 182.378 L 132.473 182.509 L 146.789 182.639 L 161.105 182.770 L 175.421 182.901 L 189.737 183.031 L 204.053 183.162 L 218.369 183.293 L 232.685 183.423 L 247.001 183.554 L 261.317 183.684 L 275.633 183.815 L 289.949 183.946 L 304.265 184.076 L 318.581 184.207 L 332.897 184.338 L 347.213 184.468 L 361.529 184.599 L 375.845 184.729 L 390.161 184.860 L 404.478 184.991 "></path>
    <path id="STROKE_23d0acb8-986c-424a-92e8-e70d8478d75f" opacity="1.000" fill="none" stroke="#474444" stroke-width="9.485" stroke-opacity="1.000" stroke-linecap="round" stroke-linejoin="round" d="M -68.997 295.208 L -54.681 295.339 L -40.365 295.470 L -26.049 295.600 L -11.733 295.731 L 2.583 295.862 L 16.899 295.992 L 31.215 296.123 L 45.531 296.253 L 59.847 296.384 L 74.163 296.515 L 88.479 296.645 L 102.795 296.776 L 117.111 296.907 L 131.427 297.037 L 145.744 297.168 L 160.060 297.298 L 174.376 297.429 L 188.692 297.560 L 203.008 297.690 L 217.324 297.821 L 231.640 297.952 L 245.956 298.082 L 260.272 298.213 L 274.588 298.343 L 288.904 298.474 L 303.220 298.605 L 317.536 298.735 L 331.852 298.866 L 346.168 298.997 L 360.484 299.127 L 374.800 299.258 L 389.116 299.388 L 403.432 299.519 "></path>
    <path id="STROKE_ba7f7379-8ddd-42c7-ab32-70ac1327e9fa" opacity="1.000" fill="none" stroke="#474444" stroke-width="9.485" stroke-opacity="1.000" stroke-linecap="round" stroke-linejoin="round" d="M 404.478 184.991 L 404.472 185.653 "></path>
    <path id="STROKE_95d2e3fe-46dc-4b8d-b73f-bba0bcc44029" opacity="1.000" fill="none" stroke="#474444" stroke-width="9.485" stroke-opacity="1.000" stroke-linecap="round" stroke-linejoin="round" d="M 403.445 298.109 L 403.432 299.519 "></path>
  </g>
  <g id="New_Layer_1" opacity="1.000">
    <path id="STROKE_fb2686d9-e0ef-4794-958d-e8e12e7997f4" opacity="1.000" fill="none" stroke="#474444" stroke-width="5.369" stroke-opacity="1.000" stroke-linecap="round" stroke-linejoin="round" d="M -669.624 218.821 L -669.749 232.458 L -669.880 246.774 L -670.010 261.090 "></path>
    <path id="STROKE_bb13e12e-32d5-4d7b-b54f-3e4e6ccf1119" opacity="1.000" fill="none" stroke="#474444" stroke-width="5.369" stroke-opacity="1.000" stroke-linecap="round" stroke-linejoin="round" d="M -670.010 261.090 L -655.694 261.221 L -641.378 261.351 L -627.062 261.482 "></path>
    <path id="STROKE_590f7f08-32da-4e1a-aba6-54e508833ef8" opacity="1.000" fill="none" stroke="#474444" stroke-width="5.369" stroke-opacity="1.000" stroke-linecap="round" stroke-linejoin="round" d="M -627.062 261.482 L -627.062 261.482 L -626.931 247.166 L -626.801 232.850 L -626.670 218.534 "></path>
    <path id="STROKE_13c7fa3e-1abe-473f-a059-c8717facc7c6" opacity="1.000" fill="none" stroke="#474444" stroke-width="5.369" stroke-opacity="1.000" stroke-linecap="round" stroke-linejoin="round" d="M -680.707 226.166 L -648.138 197.961 L -614.498 224.880 "></path>
    <path id="STROKE_d9e7e3fe-a21c-4f26-83cc-3579f077fbdd" opacity="1.000" fill="none" stroke="#474444" stroke-width="5.369" stroke-opacity="1.000" stroke-linecap="round" stroke-linejoin="round" d="M -585.838 206.602 Q -585.839 206.801 -585.950 209.138 Q -586.062 211.476 -585.980 214.083 Q -585.898 216.689 -585.838 218.313 Q -585.779 219.937 -585.758 221.410 Q -585.737 222.883 -585.763 224.324 Q -585.789 225.766 -585.974 230.029 Q -586.159 234.293 -586.115 237.948 Q -586.071 241.603 -586.098 244.272 Q -586.125 246.940 -586.143 248.289 Q -586.161 249.639 -586.204 250.657 Q -586.247 251.676 -586.277 252.245 Q -586.307 252.815 -586.321 253.031 Q -586.335 253.247 -586.352 253.806 Q -586.370 254.365 -586.381 256.268 "></path>
    <path id="STROKE_38b09d10-0a48-499a-b23f-5af1d1699979" opacity="1.000" fill="none" stroke="#474444" stroke-width="5.369" stroke-opacity="1.000" stroke-linecap="round" stroke-linejoin="round" d="M -583.735 231.159 Q -583.693 231.247 -581.945 231.426 Q -580.196 231.605 -577.997 231.298 Q -575.797 230.990 -574.335 230.847 Q -572.873 230.704 -571.260 230.776 Q -569.646 230.848 -568.020 230.678 Q -566.395 230.509 -564.349 229.954 "></path>
    <path id="STROKE_67fac987-555d-4bcb-801a-dba557251e2e" opacity="1.000" fill="none" stroke="#474444" stroke-width="5.369" stroke-opacity="1.000" stroke-linecap="round" stroke-linejoin="round" d="M -561.618 206.999 Q -561.462 207.486 -561.461 209.665 Q -561.461 211.844 -561.790 214.913 Q -562.119 217.982 -562.131 220.625 Q -562.142 223.268 -562.212 225.135 Q -562.281 227.001 -562.381 227.956 Q -562.482 228.911 -562.609 229.944 Q -562.737 230.978 -562.886 232.427 Q -563.035 233.876 -563.016 236.742 Q -562.997 239.609 -563.034 241.021 Q -563.072 242.433 -563.122 243.045 Q -563.172 243.656 -563.276 244.090 Q -563.379 244.523 -563.577 246.424 Q -563.775 248.326 -563.789 249.566 Q -563.802 250.806 -563.784 251.964 Q -563.766 253.121 -563.756 254.341 Q -563.747 255.561 -563.748 255.704 "></path>
    <path id="STROKE_74907415-7d34-4c17-900b-be71a86a1542" opacity="1.000" fill="none" stroke="#474444" stroke-width="5.369" stroke-opacity="1.000" stroke-linecap="round" stroke-linejoin="round" d="M -546.850 233.386 Q -547.082 233.205 -548.355 233.807 Q -549.629 234.410 -550.710 235.279 Q -551.792 236.149 -552.584 237.378 Q -553.375 238.607 -553.751 239.325 Q -554.127 240.042 -554.668 241.400 Q -555.208 242.758 -555.375 244.724 Q -555.543 246.691 -555.547 247.994 Q -555.551 249.297 -555.181 250.875 Q -554.811 252.453 -554.412 253.442 Q -554.012 254.430 -553.515 255.063 Q -553.017 255.696 -552.597 256.145 Q -552.176 256.593 -551.508 256.947 Q -550.841 257.300 -549.801 257.309 Q -548.761 257.318 -547.362 256.630 Q -545.963 255.943 -544.883 255.164 Q -543.804 254.385 -542.405 252.835 Q -541.006 251.285 -539.914 249.859 Q -538.821 248.434 -538.181 247.287 Q -537.540 246.140 -537.316 245.288 Q -537.092 244.436 -537.045 243.662 Q -536.999 242.889 -537.077 242.001 Q -537.155 241.114 -537.922 239.575 Q -538.690 238.036 -539.554 236.760 Q -540.417 235.484 -541.030 234.836 Q -541.643 234.188 -542.234 233.771 Q -542.825 233.354 -543.578 233.205 Q -544.332 233.056 -545.924 233.332 "></path>
    <path id="STROKE_4979f3d8-e61a-44d7-a9d9-a0cf234aeb87" opacity="1.000" fill="none" stroke="#474444" stroke-width="5.369" stroke-opacity="1.000" stroke-linecap="round" stroke-linejoin="round" d="M -530.812 255.455 Q -530.926 255.089 -530.500 250.780 Q -530.074 246.471 -529.908 244.129 Q -529.743 241.787 -529.452 240.381 Q -529.162 238.976 -528.876 238.130 Q -528.591 237.284 -528.109 236.552 Q -527.627 235.820 -526.839 235.238 Q -526.050 234.656 -525.288 234.553 Q -524.527 234.450 -524.178 234.410 Q -523.829 234.370 -523.389 235.448 Q -522.950 236.526 -522.913 238.653 Q -522.876 240.780 -522.903 242.977 Q -522.929 245.173 -522.818 247.187 Q -522.442 247.176 -521.740 244.350 Q -521.037 241.523 -520.387 239.397 Q -519.738 237.270 -519.223 236.084 Q -518.708 234.899 -518.192 234.120 Q -517.676 233.341 -517.118 232.697 Q -516.560 232.053 -515.766 231.811 Q -514.973 231.570 -514.450 232.059 Q -513.927 232.548 -513.602 233.785 Q -513.278 235.022 -513.194 236.819 Q -513.109 238.616 -513.104 241.802 Q -513.099 244.987 -513.312 248.185 Q -513.524 251.383 -513.642 252.880 Q -513.759 254.377 -513.759 255.222 Q -513.759 256.067 -513.424 256.691 "></path>
    <path id="STROKE_530f2219-c22b-4f09-a03c-98791433e222" opacity="1.000" fill="none" stroke="#474444" stroke-width="5.369" stroke-opacity="1.000" stroke-linecap="round" stroke-linejoin="round" d="M -508.085 258.169 Q -508.045 258.506 -507.973 258.467 Q -507.844 258.569 -507.269 258.765 Q -506.695 258.961 -505.540 258.747 Q -504.386 258.534 -503.612 258.087 Q -502.839 257.641 -502.456 257.374 Q -502.073 257.107 -501.622 256.733 Q -501.171 256.360 -500.679 255.887 Q -500.188 255.414 -499.867 255.076 Q -499.545 254.738 -499.320 254.505 Q -499.094 254.272 -498.661 253.768 Q -498.229 253.263 -497.798 252.607 Q -497.367 251.952 -496.825 251.174 Q -496.283 250.396 -495.815 249.141 Q -495.348 247.886 -495.119 247.114 Q -494.890 246.342 -494.780 244.208 Q -494.671 242.073 -494.692 240.722 Q -494.713 239.371 -494.904 238.601 Q -495.095 237.831 -495.231 237.203 Q -495.367 236.576 -496.203 236.354 Q -497.038 236.133 -497.683 236.174 Q -498.327 236.215 -499.214 236.761 Q -500.101 237.308 -501.061 238.181 Q -502.020 239.055 -503.125 240.614 Q -504.229 242.173 -505.019 243.731 Q -505.809 245.289 -506.190 246.853 Q -506.571 248.417 -506.630 249.753 Q -506.688 251.088 -506.620 252.412 Q -506.552 253.736 -505.942 255.401 Q -505.331 257.066 -504.211 259.086 Q -503.092 261.106 -502.412 262.128 Q -501.732 263.150 -501.225 263.731 Q -500.718 264.312 -500.269 264.808 Q -499.819 265.304 -499.262 265.753 Q -498.705 266.202 -498.342 266.425 Q -497.979 266.648 -497.228 267.186 Q -496.478 267.723 -493.569 267.649 Q -490.661 267.575 -489.893 267.437 "></path>
    <path id="STROKE_278973ec-f9ca-4aa0-9cbb-6736e20a107e" opacity="1.000" fill="none" stroke="#474444" stroke-width="5.369" stroke-opacity="1.000" stroke-linecap="round" stroke-linejoin="round" d="M -350.747 208.209 L -350.865 221.099 L -350.996 235.415 L -351.126 249.731 L -351.257 264.047 "></path>
    <path id="STROKE_d3233660-534e-47dc-9531-5acc3c647701" opacity="1.000" fill="none" stroke="#474444" stroke-width="5.369" stroke-opacity="1.000" stroke-linecap="round" stroke-linejoin="round" d="M -336.574 223.960 L -336.680 235.546 L -336.810 249.862 L -336.941 264.178 "></path>
    <path id="STROKE_673e54e2-3679-4337-8adb-4566fec8a656" opacity="1.000" fill="none" stroke="#474444" stroke-width="5.369" stroke-opacity="1.000" stroke-linecap="round" stroke-linejoin="round" d="M -365.355 240.054 L -365.442 249.601 L -365.573 263.917 "></path>
    <path id="STROKE_68491c19-e7d7-4c54-b761-d651f1f9d074" opacity="1.000" fill="none" stroke="#474444" stroke-width="5.369" stroke-opacity="1.000" stroke-linecap="round" stroke-linejoin="round" d="M -321.980 193.591 L -322.102 207.045 L -322.233 221.361 L -322.364 235.677 L -322.494 249.993 L -322.625 264.309 "></path>
    <path id="STROKE_1947f26a-dcee-4196-a2c8-ea559b034841" opacity="1.000" fill="none" stroke="#474444" stroke-width="5.369" stroke-opacity="1.000" stroke-linecap="round" stroke-linejoin="round" d="M -281.393 213.071 Q -281.324 213.012 -281.003 212.811 Q -280.681 212.610 -280.615 212.244 Q -280.787 212.150 -282.012 212.141 Q -283.238 212.131 -284.895 212.726 Q -286.553 213.321 -287.446 213.764 Q -288.340 214.207 -289.437 214.803 Q -290.534 215.399 -291.686 216.149 Q -292.837 216.899 -293.624 217.679 Q -294.411 218.460 -294.783 219.049 Q -295.156 219.639 -295.235 220.488 Q -295.314 221.338 -295.193 222.059 Q -295.072 222.780 -294.645 223.583 Q -294.219 224.385 -293.005 225.667 Q -291.792 226.949 -291.030 227.597 Q -290.268 228.245 -288.925 229.398 Q -287.581 230.550 -286.381 231.970 Q -285.180 233.389 -284.310 234.800 Q -283.440 236.211 -282.847 237.719 Q -282.254 239.227 -281.999 240.976 Q -281.745 242.725 -281.724 243.711 Q -281.703 244.696 -281.802 245.694 Q -281.900 246.692 -282.311 247.783 Q -282.722 248.874 -283.770 249.845 Q -284.818 250.816 -285.498 251.204 Q -286.179 251.592 -286.596 251.845 Q -287.014 252.099 -288.144 252.402 Q -289.275 252.706 -290.373 252.748 Q -291.471 252.790 -292.350 252.617 Q -293.230 252.443 -294.259 251.791 Q -295.288 251.138 -296.161 250.133 Q -297.035 249.128 -297.532 248.259 Q -298.030 247.390 -298.264 246.805 Q -298.498 246.221 -298.641 245.824 "></path>
    <path id="STROKE_f0eff3f9-0215-40cc-8888-8ce787b42855" opacity="1.000" fill="none" stroke="#474444" stroke-width="5.369" stroke-opacity="1.000" stroke-linecap="round" stroke-linejoin="round" d="M -266.702 236.562 Q -266.730 236.321 -266.698 236.389 Q -266.665 236.457 -266.660 236.371 Q -266.655 236.286 -266.784 236.187 Q -266.913 236.087 -267.036 236.107 Q -267.159 236.126 -267.171 236.138 Q -267.182 236.149 -267.378 236.129 Q -267.573 236.109 -268.722 236.724 Q -269.872 237.338 -271.007 238.485 Q -272.142 239.631 -272.681 240.334 Q -273.221 241.036 -273.735 241.904 Q -274.249 242.772 -274.715 244.019 Q -275.181 245.267 -275.247 246.684 Q -275.313 248.102 -275.328 248.862 Q -275.344 249.621 -274.926 251.001 Q -274.507 252.381 -273.891 253.479 Q -273.274 254.577 -272.836 255.193 Q -272.398 255.808 -271.607 256.316 Q -270.816 256.825 -269.778 256.999 Q -268.740 257.173 -267.964 257.063 Q -267.188 256.954 -266.256 256.316 Q -265.324 255.677 -264.405 254.728 Q -263.487 253.780 -262.651 252.275 Q -261.815 250.770 -261.394 249.215 Q -260.972 247.659 -260.954 246.025 Q -260.936 244.390 -260.950 243.458 Q -260.964 242.526 -261.333 241.280 Q -261.701 240.035 -262.146 239.169 Q -262.591 238.302 -263.172 237.619 Q -263.752 236.936 -267.434 236.397 "></path>
    <path id="STROKE_085914d4-ef8a-4708-ae1a-ba8a2a92311b" opacity="1.000" fill="none" stroke="#474444" stroke-width="5.369" stroke-opacity="1.000" stroke-linecap="round" stroke-linejoin="round" d="M -250.931 254.032 Q -250.883 253.981 -251.112 254.048 Q -251.340 254.115 -251.541 252.591 Q -251.741 251.066 -251.717 249.209 Q -251.693 247.352 -251.415 245.603 Q -251.137 243.854 -250.632 242.345 Q -250.128 240.836 -249.660 239.859 Q -249.192 238.882 -248.434 238.074 Q -247.676 237.266 -246.793 236.654 Q -245.910 236.041 -244.488 236.215 Q -243.066 236.389 -242.719 236.520 "></path>
    <path id="STROKE_24faf879-0760-4870-a7d1-dfed31328125" opacity="1.000" fill="none" stroke="#474444" stroke-width="5.369" stroke-opacity="1.000" stroke-linecap="round" stroke-linejoin="round" d="M -231.999 233.535 Q -232.022 233.932 -231.608 238.169 Q -231.193 242.406 -231.008 245.009 Q -230.822 247.613 -230.700 249.611 Q -230.579 251.608 -230.242 252.742 Q -229.905 253.875 -229.856 253.945 "></path>
    <path id="STROKE_2d283c65-cb14-4739-8788-842dc95739dc" opacity="1.000" fill="none" stroke="#474444" stroke-width="5.369" stroke-opacity="1.000" stroke-linecap="round" stroke-linejoin="round" d="M -240.104 231.109 Q -239.962 230.798 -238.540 230.367 Q -237.119 229.936 -236.261 229.816 Q -235.403 229.696 -233.872 229.616 Q -232.340 229.535 -227.534 231.065 "></path>
    <path id="STROKE_63de67c7-37e5-4e93-bd88-650607d5e64c" opacity="1.000" fill="none" stroke="#474444" stroke-width="5.369" stroke-opacity="1.000" stroke-linecap="round" stroke-linejoin="round" d="M -219.667 249.213 Q -219.538 249.049 -218.924 247.190 Q -218.310 245.332 -217.933 244.287 Q -217.557 243.243 -217.132 241.384 Q -216.707 239.526 -216.616 234.919 Q -216.769 234.970 -217.271 236.960 Q -217.773 238.950 -217.950 240.303 Q -218.128 241.657 -218.214 243.447 Q -218.300 245.236 -218.265 246.373 Q -218.229 247.510 -218.099 248.169 Q -217.968 248.827 -217.701 249.654 Q -217.433 250.481 -217.014 251.130 Q -216.594 251.779 -215.982 252.225 Q -215.369 252.670 -214.591 252.685 Q -213.814 252.701 -213.124 252.596 Q -212.433 252.492 -211.393 251.414 Q -210.353 250.337 -209.395 248.831 Q -208.437 247.326 -207.471 245.398 Q -206.506 243.470 -205.374 238.067 Q -205.177 237.984 -207.339 250.490 Q -207.311 250.443 -206.529 247.404 Q -205.746 244.365 -205.019 242.270 Q -204.292 240.175 -203.910 239.183 Q -203.529 238.191 -202.869 236.983 Q -202.209 235.775 -201.655 235.093 Q -201.100 234.412 -200.543 233.857 Q -199.985 233.301 -199.376 233.258 Q -198.767 233.215 -198.410 233.390 Q -198.053 233.565 -197.690 234.091 Q -197.326 234.616 -197.112 235.566 Q -196.898 236.515 -196.996 239.465 Q -197.093 242.415 -197.755 246.083 Q -198.417 249.751 -198.417 249.761 "></path>
    <path id="STROKE_347a6d41-dd7e-41ac-84fa-5b50e0aabe5c" opacity="1.000" fill="none" stroke="#474444" stroke-width="5.369" stroke-opacity="1.000" stroke-linecap="round" stroke-linejoin="round" d="M -187.031 237.168 Q -187.022 237.271 -186.989 237.053 Q -186.956 236.835 -187.212 236.730 Q -187.469 236.626 -187.798 236.645 Q -188.127 236.664 -189.024 237.387 Q -189.920 238.111 -190.877 239.257 Q -191.834 240.402 -192.619 241.803 Q -193.404 243.203 -193.802 244.347 Q -194.201 245.490 -194.302 246.414 Q -194.404 247.338 -194.351 247.897 Q -194.299 248.455 -194.048 248.816 Q -193.798 249.177 -193.357 249.346 Q -192.916 249.515 -191.975 249.583 Q -191.034 249.652 -189.879 248.751 Q -188.725 247.850 -187.661 246.743 Q -186.598 245.635 -185.841 244.231 Q -185.085 242.828 -184.789 242.038 Q -184.493 241.249 -184.386 240.861 Q -184.279 240.474 -183.996 239.374 Q -183.713 238.273 -182.986 236.437 Q -182.974 236.437 -182.955 236.437 Q -182.930 236.384 -182.955 238.136 Q -182.980 239.887 -182.989 240.891 Q -182.998 241.896 -183.116 243.583 Q -183.233 245.270 -183.924 249.116 Q -184.616 252.962 -185.043 254.958 Q -185.471 256.954 -185.915 258.982 Q -186.359 261.009 -186.820 262.522 Q -187.281 264.036 -188.144 265.525 Q -189.007 267.015 -189.545 267.835 Q -190.083 268.655 -190.576 269.254 Q -191.069 269.854 -191.469 270.166 Q -191.868 270.478 -192.391 270.337 Q -192.578 269.983 -192.465 268.228 Q -192.351 266.474 -191.606 264.461 Q -190.860 262.448 -190.370 261.461 Q -189.880 260.475 -189.532 259.869 Q -189.183 259.264 -188.538 258.240 Q -187.892 257.216 -187.126 256.343 Q -186.360 255.469 -185.159 254.781 Q -183.958 254.094 -182.100 253.756 Q -180.242 253.419 -178.871 253.322 Q -177.500 253.225 -173.733 253.190 "></path>
    <path id="STROKE_af672a6e-27c4-4975-8dd4-33af114cc4cd" opacity="1.000" fill="none" stroke="#474444" stroke-width="5.369" stroke-opacity="1.000" stroke-linecap="round" stroke-linejoin="round" d="M -215.914 223.440 Q -215.924 223.430 -215.933 223.421 "></path>
    <path id="STROKE_7d27c25e-dca8-46e1-b099-b8cfdd9942a0" opacity="1.000" fill="none" stroke="#474444" stroke-width="5.369" stroke-opacity="1.000" stroke-linecap="round" stroke-linejoin="round" d="M -127.020 263.767 Q -127.010 263.805 -126.149 262.441 Q -125.289 261.077 -123.896 259.161 Q -122.504 257.246 -121.430 255.894 Q -120.356 254.543 -119.675 253.623 Q -118.994 252.702 -117.847 251.408 Q -116.701 250.115 -116.093 249.386 Q -115.485 248.658 -114.193 247.105 Q -112.900 245.552 -112.003 244.606 Q -111.106 243.659 -110.497 242.991 Q -109.888 242.322 -109.407 241.646 Q -108.925 240.969 -107.200 239.131 Q -105.475 237.292 -104.129 235.902 Q -102.784 234.511 -102.131 233.898 Q -101.479 233.285 -100.762 232.556 Q -100.045 231.827 -99.699 231.372 Q -99.354 230.916 -99.199 230.722 Q -99.043 230.529 -98.906 230.399 Q -98.769 230.270 -98.779 230.275 Q -98.788 230.279 -98.788 230.279 Q -98.788 230.279 -98.792 230.280 Q -98.797 230.281 -98.777 230.278 Q -98.757 230.275 -98.786 230.281 Q -98.815 230.287 -98.595 230.184 Q -98.375 230.080 -98.415 230.087 Q -98.456 230.094 -98.446 230.148 Q -98.437 230.203 -97.634 229.212 "></path>
    <path id="STROKE_ee130d5d-5173-431c-9d0d-9c3ac65b9f0b" opacity="1.000" fill="none" stroke="#474444" stroke-width="5.369" stroke-opacity="1.000" stroke-linecap="round" stroke-linejoin="round" d="M -126.929 264.610 Q -126.943 264.672 -126.949 264.613 Q -126.954 264.554 -127.110 265.023 Q -127.267 265.492 -127.285 267.148 Q -127.304 268.804 -127.327 269.846 Q -127.350 270.889 -127.156 271.918 Q -126.961 272.948 -126.671 273.690 Q -126.381 274.433 -125.918 275.031 Q -125.454 275.629 -124.011 276.180 Q -122.569 276.730 -121.346 277.063 Q -120.123 277.397 -119.112 277.547 Q -118.102 277.697 -117.264 277.631 Q -116.427 277.566 -115.890 277.334 Q -115.353 277.103 -114.267 276.467 Q -113.180 275.832 -110.965 274.050 Q -108.750 272.268 -107.366 270.999 Q -105.983 269.730 -104.738 268.352 Q -103.493 266.974 -102.822 266.190 Q -102.151 265.407 -101.699 264.949 Q -101.248 264.491 -100.550 263.609 Q -99.853 262.726 -98.385 261.110 Q -96.918 259.494 -95.904 258.452 Q -94.891 257.410 -94.261 256.653 Q -93.631 255.895 -92.336 254.334 Q -91.041 252.773 -89.981 251.575 Q -88.921 250.376 -87.893 249.100 Q -86.865 247.823 -86.166 247.114 Q -85.466 246.404 -85.025 246.028 Q -84.583 245.653 -83.927 244.869 Q -83.943 244.869 -83.958 244.869 "></path>
    <path id="STROKE_a9d4f26a-2eea-45bb-98fa-6afa5849ab6b" opacity="1.000" fill="none" stroke="#474444" stroke-width="5.369" stroke-opacity="1.000" stroke-linecap="round" stroke-linejoin="round" d="M -97.305 227.360 Q -97.266 227.235 -97.284 224.805 Q -97.303 222.374 -97.334 220.961 Q -97.364 219.548 -97.266 218.721 Q -97.169 217.895 -96.908 216.809 Q -96.647 215.724 -96.163 214.630 Q -95.679 213.537 -94.967 212.547 Q -94.255 211.558 -93.578 210.744 Q -92.901 209.930 -92.174 209.100 Q -91.448 208.269 -89.774 207.154 Q -88.099 206.038 -86.777 205.376 Q -85.455 204.715 -84.227 204.220 Q -82.999 203.726 -81.587 203.465 Q -80.174 203.204 -79.399 203.122 Q -78.624 203.040 -77.747 203.071 Q -76.871 203.103 -75.652 203.046 Q -74.433 202.989 -73.043 203.217 Q -71.654 203.446 -70.794 203.709 Q -69.935 203.973 -68.785 204.362 Q -67.635 204.751 -66.576 205.232 Q -65.516 205.713 -64.509 206.339 Q -63.501 206.965 -62.399 208.257 Q -61.296 209.549 -60.751 210.466 Q -60.207 211.382 -59.860 211.975 Q -59.514 212.568 -58.865 213.671 Q -58.215 214.775 -57.613 217.498 Q -57.010 220.221 -56.790 221.608 Q -56.570 222.995 -56.251 224.216 Q -55.932 225.437 -55.838 226.954 Q -55.744 228.472 -55.851 229.926 Q -55.957 231.380 -56.288 233.034 Q -56.620 234.687 -57.020 235.823 Q -57.420 236.959 -57.696 237.502 Q -57.972 238.046 -58.549 238.789 Q -59.126 239.531 -60.251 240.467 Q -61.376 241.403 -62.629 242.149 Q -63.882 242.894 -66.332 243.674 Q -68.781 244.454 -70.525 244.968 Q -72.269 245.482 -74.152 245.666 Q -76.036 245.850 -77.227 245.878 Q -78.419 245.906 -79.661 245.803 Q -80.902 245.701 -81.930 245.510 Q -82.957 245.319 -83.845 245.002 "></path>
    <path id="STROKE_4e32314e-f248-4197-8d7e-525904c03b51" opacity="1.000" fill="none" stroke="#474444" stroke-width="5.369" stroke-opacity="1.000" stroke-linecap="round" stroke-linejoin="round" d="M -77.089 215.865 Q -76.997 215.906 -77.495 215.777 Q -77.994 215.648 -78.738 215.938 Q -79.481 216.227 -79.910 216.588 Q -80.339 216.949 -80.784 217.352 Q -81.230 217.754 -81.753 218.571 Q -82.275 219.387 -82.737 220.563 Q -83.200 221.738 -83.395 223.504 Q -83.590 225.270 -83.608 226.685 Q -83.626 228.101 -83.436 229.272 Q -83.245 230.443 -83.065 231.066 Q -82.884 231.688 -82.601 232.264 Q -82.318 232.840 -81.899 233.426 Q -81.480 234.013 -80.731 234.469 Q -79.983 234.926 -78.766 235.024 Q -77.549 235.121 -76.795 235.037 Q -76.041 234.954 -75.425 234.808 Q -74.810 234.662 -73.900 234.315 Q -72.990 233.968 -72.030 233.163 Q -71.071 232.359 -70.521 231.678 Q -69.970 230.998 -69.431 230.080 Q -68.892 229.162 -68.500 228.037 Q -68.108 226.912 -67.954 225.450 Q -67.800 223.988 -67.771 223.111 Q -67.742 222.234 -68.008 221.340 Q -68.273 220.447 -68.601 219.859 Q -68.928 219.271 -69.179 218.856 Q -69.430 218.442 -69.971 217.848 Q -70.513 217.254 -70.743 217.054 Q -70.973 216.854 -71.645 216.369 Q -72.318 215.884 -73.366 215.624 Q -74.415 215.363 -75.102 215.307 Q -75.789 215.250 -75.831 215.249 "></path>
    <path id="STROKE_3fbbc5fb-8ac8-4fd4-9c01-b075e605957a" opacity="1.000" fill="none" stroke="#474444" stroke-width="5.369" stroke-opacity="1.000" stroke-linecap="round" stroke-linejoin="round" d="M -18.093 215.952 Q -18.010 215.976 -18.108 215.721 Q -18.206 215.466 -18.329 215.263 Q -18.452 215.060 -18.711 214.943 Q -18.971 214.826 -18.893 214.855 Q -18.815 214.884 -19.672 214.726 Q -20.528 214.568 -21.743 214.845 Q -22.959 215.122 -24.234 215.820 Q -25.509 216.519 -26.232 217.046 Q -26.956 217.574 -27.450 217.948 Q -27.945 218.323 -28.813 219.037 Q -29.682 219.751 -30.611 220.644 Q -31.541 221.537 -32.220 222.540 Q -32.900 223.544 -33.288 224.515 Q -33.676 225.486 -33.867 226.436 Q -34.057 227.386 -34.092 228.724 Q -34.127 230.062 -33.772 231.432 Q -33.416 232.801 -32.751 234.298 Q -32.085 235.795 -31.081 237.232 Q -30.077 238.669 -29.255 239.537 Q -28.433 240.406 -27.912 240.879 Q -27.391 241.353 -26.709 241.861 Q -26.027 242.368 -25.586 242.695 Q -25.145 243.022 -23.859 243.630 Q -22.573 244.238 -21.147 244.893 Q -19.722 245.547 -18.944 245.999 Q -18.167 246.451 -17.490 246.986 Q -16.814 247.520 -16.239 248.146 Q -15.665 248.772 -15.379 249.090 Q -15.093 249.408 -14.663 250.122 Q -14.234 250.836 -14.048 251.262 Q -13.862 251.688 -13.693 252.881 Q -13.524 254.073 -13.518 255.426 Q -13.512 256.780 -13.864 258.177 Q -14.216 259.574 -14.676 260.685 Q -15.135 261.797 -15.857 262.980 Q -16.578 264.162 -17.402 265.157 Q -18.227 266.151 -18.944 266.710 Q -19.662 267.268 -20.313 267.656 Q -20.964 268.044 -22.251 268.667 Q -23.539 269.290 -25.143 269.539 Q -26.747 269.788 -27.586 269.806 Q -28.426 269.824 -28.910 269.824 Q -29.394 269.824 -30.375 269.773 Q -31.357 269.722 -33.344 268.901 Q -35.331 268.080 -36.305 267.542 Q -37.279 267.004 -37.904 266.626 Q -38.528 266.248 -39.213 265.785 Q -39.897 265.322 -40.514 264.772 Q -41.131 264.222 -41.952 263.180 "></path>
    <path id="STROKE_39656b6d-85bd-4d11-adca-57aea5c00fb8" opacity="1.000" fill="none" stroke="#474444" stroke-width="5.369" stroke-opacity="1.000" stroke-linecap="round" stroke-linejoin="round" d="M -7.986 268.403 Q -7.785 268.451 -6.879 268.199 Q -5.972 267.947 -4.885 267.078 Q -3.798 266.210 -2.964 265.220 Q -2.129 264.230 -1.427 262.922 Q -0.725 261.615 -0.231 259.972 Q 0.263 258.329 0.500 257.408 Q 0.736 256.486 0.899 253.900 Q 1.062 251.313 1.043 249.893 Q 1.023 248.472 1.024 247.790 Q 1.025 247.107 0.903 246.554 Q 0.782 246.001 0.250 245.668 Q -0.283 245.335 -1.058 245.295 Q -1.833 245.256 -2.522 245.436 Q -3.211 245.616 -4.062 246.115 Q -4.913 246.614 -5.640 247.288 Q -6.366 247.963 -6.998 249.167 Q -7.629 250.371 -8.010 251.506 Q -8.391 252.642 -8.646 253.966 Q -8.901 255.291 -8.938 256.319 Q -8.975 257.348 -8.957 258.439 Q -8.940 259.530 -8.669 260.549 Q -8.398 261.568 -7.984 262.437 Q -7.570 263.307 -6.754 264.313 Q -5.938 265.318 -5.066 266.113 Q -4.195 266.908 -2.931 267.573 Q -1.668 268.237 -0.945 268.514 Q -0.222 268.791 0.805 269.075 Q 1.831 269.359 3.494 269.501 Q 5.157 269.643 8.634 268.885 "></path>
    <path id="STROKE_65d1954b-4d68-4615-b8de-69dc2c6d833f" opacity="1.000" fill="none" stroke="#474444" stroke-width="5.369" stroke-opacity="1.000" stroke-linecap="round" stroke-linejoin="round" d="M 15.830 252.604 Q 15.858 252.354 15.847 252.408 Q 15.553 252.102 15.560 252.149 Q 15.567 252.196 15.463 252.175 Q 15.359 252.154 15.173 252.171 Q 14.987 252.187 14.741 252.245 Q 14.494 252.304 13.518 253.183 Q 12.543 254.062 11.616 255.306 Q 10.689 256.549 9.983 258.021 Q 9.277 259.493 8.917 260.495 Q 8.557 261.497 8.297 262.656 Q 8.037 263.814 8.024 264.965 Q 8.012 266.115 8.014 266.751 Q 8.016 267.387 8.173 268.202 Q 8.329 269.018 8.784 269.729 Q 9.238 270.440 9.833 270.807 Q 10.427 271.173 10.862 271.349 Q 11.298 271.524 11.940 271.536 Q 12.582 271.548 13.172 271.422 Q 13.763 271.296 14.418 270.885 Q 15.073 270.475 15.689 269.680 Q 16.305 268.886 16.918 267.690 Q 17.531 266.494 18.035 265.189 Q 18.540 263.885 18.751 262.058 Q 18.963 260.231 18.958 258.518 Q 18.952 256.806 18.880 255.625 Q 18.807 254.444 18.316 253.488 Q 18.077 253.739 18.589 255.870 Q 19.100 258.001 19.609 259.458 Q 20.117 260.914 20.578 261.827 Q 21.038 262.740 21.688 263.398 Q 22.339 264.057 23.054 264.477 Q 23.770 264.897 24.554 265.058 Q 25.338 265.219 25.935 265.257 Q 26.531 265.296 27.182 264.985 Q 27.832 264.674 28.550 264.509 Q 28.799 264.629 30.359 270.373 Q 30.377 270.432 30.383 268.971 Q 30.390 267.510 30.339 266.048 Q 30.288 264.585 30.293 262.627 Q 30.297 260.669 30.452 259.168 Q 30.607 257.668 30.818 256.600 Q 31.030 255.533 31.181 255.017 Q 31.332 254.501 31.479 253.917 Q 31.626 253.333 32.021 252.593 Q 32.416 251.853 32.717 251.448 Q 33.018 251.044 33.622 250.441 Q 34.226 249.839 35.386 249.528 Q 36.545 249.217 37.325 249.251 Q 38.105 249.286 38.544 249.290 "></path>
    <path id="STROKE_543929ba-8f9c-49c1-a1ce-7eebaf4f2d09" opacity="1.000" fill="none" stroke="#474444" stroke-width="5.369" stroke-opacity="1.000" stroke-linecap="round" stroke-linejoin="round" d="M 54.241 242.218 Q 54.143 242.147 53.748 242.092 Q 53.352 242.038 52.796 242.389 Q 52.240 242.741 51.168 243.846 Q 50.096 244.950 49.337 245.807 Q 48.577 246.663 47.510 248.280 Q 46.443 249.896 45.913 250.980 Q 45.383 252.065 45.052 252.723 Q 44.721 253.381 44.257 254.809 Q 43.794 256.237 43.607 257.742 Q 43.420 259.246 43.400 260.086 Q 43.379 260.925 43.381 261.939 Q 43.382 262.953 43.615 264.059 Q 43.847 265.166 44.242 266.118 Q 44.637 267.069 45.187 267.840 Q 45.738 268.612 46.675 269.228 Q 47.613 269.845 48.522 270.159 Q 49.432 270.473 50.521 270.543 Q 51.611 270.614 52.460 270.582 Q 53.309 270.550 54.420 270.058 Q 55.530 269.566 56.138 269.178 Q 56.746 268.790 57.420 268.236 Q 58.095 267.681 58.921 266.191 Q 59.747 264.702 60.315 262.866 Q 60.882 261.030 61.053 260.002 Q 61.223 258.974 61.698 255.387 Q 62.173 251.800 62.469 249.772 Q 62.766 247.744 62.891 246.776 Q 63.016 245.808 63.157 245.215 Q 63.297 244.623 63.548 237.208 Q 63.482 237.364 63.351 241.430 Q 63.219 245.495 62.832 251.061 Q 62.445 256.627 61.510 265.149 Q 61.515 265.098 62.284 262.676 Q 63.054 260.254 63.657 258.517 Q 64.260 256.779 64.916 255.500 Q 65.571 254.220 66.185 253.394 Q 66.798 252.567 67.267 252.109 Q 67.736 251.650 68.158 251.278 Q 68.581 250.905 69.335 250.756 Q 70.090 250.607 70.590 250.697 Q 71.091 250.788 71.582 251.110 Q 72.073 251.432 72.582 252.130 Q 73.091 252.827 73.435 254.267 Q 73.778 255.706 73.948 258.061 Q 74.118 260.415 73.360 265.604 "></path>
    <path id="STROKE_f0852801-3877-4594-8556-a347870fb3d8" opacity="1.000" fill="none" stroke="#474444" stroke-width="5.369" stroke-opacity="1.000" stroke-linecap="round" stroke-linejoin="round" d="M 73.431 268.553 Q 73.357 268.548 73.372 268.771 Q 73.386 268.995 73.377 269.203 Q 73.367 269.410 73.871 269.758 Q 74.376 270.105 75.251 270.249 Q 76.127 270.393 77.004 270.357 Q 77.881 270.322 78.569 270.214 Q 79.256 270.106 80.570 269.677 Q 81.883 269.249 82.993 268.556 Q 84.103 267.864 84.600 267.555 Q 85.097 267.246 85.652 266.585 Q 86.207 265.924 86.511 265.298 Q 86.815 264.672 87.110 263.516 Q 87.405 262.360 87.187 259.216 Q 86.734 259.270 86.518 261.178 Q 86.301 263.085 86.281 264.231 Q 86.262 265.376 86.283 266.012 Q 86.304 266.649 86.517 267.271 Q 86.731 267.892 87.082 268.411 Q 87.433 268.930 88.233 269.183 Q 89.034 269.436 89.611 269.412 Q 90.188 269.388 90.868 269.248 Q 91.548 269.108 92.452 268.606 Q 93.355 268.103 94.133 267.554 Q 94.911 267.005 95.827 265.873 Q 96.743 264.742 97.498 262.994 Q 98.253 261.247 99.124 259.757 Q 99.142 259.758 99.168 259.766 Q 99.301 259.734 98.821 262.878 Q 98.341 266.022 97.859 269.349 Q 97.836 269.400 97.909 269.377 Q 97.983 269.354 98.380 268.462 Q 98.778 267.569 99.596 265.323 Q 100.413 263.078 101.096 261.449 Q 101.779 259.820 102.168 259.051 Q 102.558 258.283 102.988 257.677 Q 103.417 257.072 103.898 256.586 Q 104.379 256.100 104.885 255.861 Q 105.390 255.623 105.838 255.575 Q 106.285 255.527 106.581 255.578 Q 106.877 255.630 107.321 256.287 Q 107.765 256.945 107.908 258.834 Q 108.052 260.723 108.020 262.933 Q 107.988 265.142 107.002 269.752 Q 107.068 269.711 107.333 269.326 "></path>
    <path id="STROKE_46faf511-fc2b-4b80-bf29-b8f56506c8cc" opacity="1.000" fill="none" stroke="#474444" stroke-width="5.369" stroke-opacity="1.000" stroke-linecap="round" stroke-linejoin="round" d="M 119.154 256.496 Q 118.996 256.499 118.252 256.376 Q 117.507 256.254 116.668 256.352 Q 115.829 256.451 114.645 257.190 Q 113.462 257.929 112.726 258.635 Q 111.989 259.342 111.543 259.824 Q 111.097 260.305 110.393 261.279 Q 109.688 262.254 109.323 263.118 Q 108.958 263.983 108.804 264.707 Q 108.651 265.430 108.747 266.015 Q 108.842 266.600 109.355 267.023 Q 109.867 267.446 110.669 267.771 Q 111.471 268.096 112.429 268.219 Q 113.388 268.342 114.274 268.260 Q 115.161 268.177 115.945 267.885 Q 116.729 267.593 117.636 266.817 Q 118.543 266.040 119.322 264.988 Q 120.101 263.935 120.468 263.146 Q 120.834 262.357 121.026 261.908 Q 121.217 261.459 121.470 260.463 Q 121.723 259.468 122.433 256.460 L 122.452 256.460 Q 122.491 256.235 122.463 257.748 Q 122.435 259.261 121.979 261.657 Q 121.523 264.053 121.111 265.942 Q 120.700 267.831 120.136 270.433 Q 119.572 273.035 119.080 274.810 Q 118.587 276.586 118.253 277.465 Q 117.918 278.343 117.726 278.904 Q 117.535 279.464 116.562 280.774 Q 115.590 282.084 114.845 282.895 Q 114.100 283.707 113.596 284.190 Q 113.092 284.674 112.613 284.852 Q 112.133 285.029 111.861 285.065 Q 111.589 285.101 111.276 284.977 Q 110.963 284.854 110.869 283.656 Q 110.775 282.458 110.867 281.293 Q 110.958 280.129 111.502 278.727 Q 112.047 277.326 112.839 276.058 Q 113.631 274.791 114.462 273.882 Q 115.293 272.973 115.747 272.629 Q 116.202 272.284 117.159 271.657 Q 118.115 271.030 120.143 270.336 Q 122.170 269.643 124.496 269.185 Q 126.822 268.727 127.468 268.602 "></path>
    <path id="STROKE_002e9c9e-d30d-4318-9cf7-edb7de6b2347" opacity="1.000" fill="none" stroke="#474444" stroke-width="5.369" stroke-opacity="1.000" stroke-linecap="round" stroke-linejoin="round" d="M 97.900 243.302 Q 97.650 243.300 96.973 243.185 L 96.966 243.085 Q 97.093 243.022 97.341 242.982 "></path>
    <path id="STROKE_c7661ddb-6cc0-47fd-8c21-d098ff5924d7" opacity="1.000" fill="none" stroke="#474444" stroke-width="5.369" stroke-opacity="1.000" stroke-linecap="round" stroke-linejoin="round" d="M 173.952 272.931 Q 173.668 272.716 173.755 272.679 Q 173.809 272.721 173.199 269.497 Q 172.590 266.274 172.269 263.649 Q 171.948 261.023 171.896 259.702 Q 171.844 258.381 171.921 256.538 Q 171.997 254.695 172.454 252.537 Q 172.911 250.378 173.271 249.107 Q 173.631 247.837 174.241 246.598 Q 174.852 245.360 175.644 244.175 Q 176.437 242.990 177.241 242.084 Q 178.045 241.178 179.055 240.355 Q 180.064 239.532 181.159 239.009 Q 182.253 238.487 183.313 238.280 Q 184.374 238.073 185.470 238.073 Q 186.566 238.074 187.415 238.333 Q 188.264 238.592 189.070 239.082 Q 189.876 239.572 190.735 240.283 Q 191.593 240.994 192.389 243.099 Q 193.184 245.204 193.646 246.439 Q 194.107 247.675 194.681 248.790 Q 195.255 249.904 196.093 251.164 Q 196.930 252.424 197.920 253.357 Q 198.910 254.290 199.948 254.947 Q 200.986 255.605 201.781 255.892 Q 202.576 256.180 203.470 256.216 Q 204.364 256.253 205.182 256.208 Q 206.000 256.162 207.520 255.300 Q 209.040 254.438 209.962 253.838 Q 210.883 253.238 211.728 252.173 Q 212.573 251.108 212.869 250.431 Q 213.164 249.755 213.622 248.861 Q 214.079 247.967 214.337 246.703 Q 214.595 245.440 214.623 243.226 Q 214.651 241.013 214.488 239.218 Q 214.325 237.423 213.806 235.781 Q 213.286 234.138 213.054 232.318 Q 212.822 230.498 212.874 228.559 Q 212.926 226.620 212.905 225.262 Q 212.884 223.903 212.977 222.885 Q 213.069 221.868 213.365 221.025 Q 213.661 220.182 214.149 219.443 Q 214.637 218.703 215.163 218.304 Q 215.689 217.905 216.372 217.754 Q 217.055 217.603 217.553 217.627 Q 218.050 217.651 218.648 217.776 Q 219.245 217.901 219.821 218.191 Q 220.398 218.482 221.613 219.041 Q 222.828 219.600 223.561 219.801 Q 224.293 220.002 224.805 220.096 Q 225.318 220.189 226.358 220.306 Q 227.398 220.423 228.979 220.000 Q 230.560 219.577 231.886 218.659 Q 233.212 217.741 233.360 217.649 "></path>
    <path id="STROKE_3208c083-ef2a-423b-8be0-8c3e8cdbaf16" opacity="1.000" fill="none" stroke="#474444" stroke-width="5.369" stroke-opacity="1.000" stroke-linecap="round" stroke-linejoin="round" d="M 234.474 217.928 Q 234.962 218.103 235.978 219.003 Q 236.994 219.903 237.587 221.589 Q 238.179 223.275 238.448 224.359 Q 238.717 225.443 238.861 226.176 Q 239.004 226.909 238.947 227.466 Q 238.889 228.023 238.805 228.338 Q 238.721 228.653 238.522 229.038 Q 238.323 229.423 237.638 229.985 Q 236.954 230.547 235.988 230.762 Q 235.022 230.978 233.810 230.708 Q 232.597 230.439 232.019 230.315 Q 231.442 230.190 230.995 230.204 Q 230.548 230.218 230.171 230.187 Q 229.794 230.156 229.387 230.132 Q 228.980 230.108 228.761 230.123 Q 228.542 230.138 228.519 230.194 Q 228.497 230.251 228.418 230.340 Q 228.339 230.429 228.263 230.546 Q 228.186 230.663 228.118 230.769 Q 228.050 230.875 227.989 231.031 Q 227.929 231.186 227.897 231.236 Q 227.865 231.285 227.613 231.888 Q 227.362 232.491 227.305 233.331 Q 227.249 234.170 227.740 235.353 Q 228.232 236.537 228.570 238.023 Q 228.908 239.510 229.066 242.190 Q 229.223 244.871 229.318 246.307 Q 229.414 247.743 229.408 249.929 Q 229.402 252.115 229.166 254.061 Q 228.930 256.007 228.657 257.110 Q 228.384 258.212 228.091 259.017 Q 227.798 259.822 227.019 260.952 Q 226.239 262.082 225.304 262.842 Q 224.369 263.602 223.692 264.128 Q 223.015 264.653 221.618 265.521 Q 220.220 266.389 218.937 266.984 Q 217.655 267.580 216.168 267.703 Q 214.681 267.826 213.234 267.585 Q 211.787 267.344 210.164 267.471 Q 208.541 267.597 207.535 267.721 Q 206.529 267.845 205.348 267.563 Q 204.167 267.282 202.525 267.237 Q 200.883 267.192 200.030 267.329 Q 199.177 267.467 198.159 266.716 Q 197.141 265.965 196.647 265.466 Q 196.153 264.967 195.502 264.604 Q 194.851 264.241 194.177 263.864 Q 193.502 263.487 192.995 263.154 Q 192.488 262.821 191.687 262.093 Q 190.887 261.365 190.128 260.947 Q 189.368 260.528 188.565 260.410 Q 187.761 260.293 186.862 261.135 Q 185.964 261.978 185.430 262.642 Q 184.897 263.307 184.461 264.315 Q 184.025 265.322 183.813 266.041 Q 183.601 266.760 183.485 268.107 Q 183.369 269.454 183.304 270.221 Q 183.239 270.989 182.947 271.673 Q 182.655 272.357 182.099 272.924 Q 181.543 273.491 181.183 273.728 Q 180.823 273.965 180.222 273.564 Q 179.622 273.163 179.300 272.860 Q 178.978 272.557 178.147 272.533 "></path>
    <path id="STROKE_f8db4755-2778-4350-93e0-abdd70d81443" opacity="1.000" fill="none" stroke="#474444" stroke-width="5.369" stroke-opacity="1.000" stroke-linecap="round" stroke-linejoin="round" d="M 233.182 200.708 Q 233.210 200.831 233.143 203.605 Q 233.076 206.379 232.969 208.056 Q 232.862 209.733 232.988 210.986 Q 233.114 212.238 232.940 213.976 Q 232.765 215.714 232.732 216.660 Q 232.699 217.605 232.693 218.462 Q 232.687 219.318 232.720 219.888 Q 232.754 220.458 232.815 221.696 Q 232.875 222.933 232.967 226.313 Q 232.977 226.313 233.013 226.314 Q 233.010 226.625 233.011 226.541 Q 233.007 226.950 233.009 226.813 Q 232.932 226.721 233.071 226.935 Q 233.210 227.150 233.490 227.301 Q 233.770 227.453 234.012 227.594 Q 234.253 227.735 234.692 227.601 Q 235.130 227.467 235.583 226.829 Q 236.037 226.192 236.800 225.025 Q 237.563 223.858 238.677 221.227 Q 239.791 218.597 240.290 217.216 Q 240.790 215.835 241.321 214.469 Q 241.853 213.102 242.107 212.428 Q 242.360 211.754 243.036 210.382 Q 243.711 209.009 246.048 206.670 Q 246.038 206.670 245.939 206.725 Q 245.841 206.780 245.798 206.809 "></path>
    <path id="STROKE_c3bda1c6-4119-4517-812e-60c3ef468a81" opacity="1.000" fill="none" stroke="#474444" stroke-width="5.369" stroke-opacity="1.000" stroke-linecap="round" stroke-linejoin="round" d="M 240.135 193.499 Q 240.116 193.448 239.491 193.150 Q 238.866 192.852 238.137 192.950 Q 237.409 193.048 236.906 193.581 Q 236.403 194.115 236.098 194.463 Q 235.793 194.811 235.205 195.944 Q 234.616 197.077 234.316 198.669 Q 234.017 200.261 233.965 201.291 Q 233.913 202.322 234.061 203.291 Q 234.209 204.260 234.512 204.916 Q 234.815 205.573 235.419 206.322 Q 236.023 207.070 237.249 207.454 Q 238.474 207.838 239.460 207.978 Q 240.446 208.118 241.647 207.640 Q 242.849 207.161 244.007 206.351 Q 245.165 205.540 246.109 204.493 Q 247.053 203.447 247.683 202.391 Q 248.314 201.335 248.514 200.105 Q 248.713 198.875 248.723 197.978 Q 248.732 197.082 248.560 196.499 Q 248.388 195.917 247.846 195.146 Q 247.303 194.376 245.789 194.124 Q 244.275 193.872 242.888 193.921 Q 241.501 193.969 240.311 194.289 "></path>
    <path id="STROKE_7a051604-d3e4-49f5-bd99-abfa241f0728" opacity="1.000" fill="none" stroke="#474444" stroke-width="5.369" stroke-opacity="1.000" stroke-linecap="round" stroke-linejoin="round" d="M 163.009 251.609 Q 163.148 251.994 164.386 254.639 Q 165.623 257.284 166.695 259.753 Q 167.767 262.222 168.291 263.599 Q 168.815 264.976 170.055 267.182 Q 171.296 269.389 172.073 270.655 Q 172.850 271.921 173.745 273.060 Q 174.639 274.199 175.303 274.723 Q 175.966 275.247 176.673 275.837 Q 177.381 276.428 177.864 277.049 Q 178.347 277.671 178.706 277.927 Q 179.065 278.183 179.128 278.224 Q 179.190 278.266 179.380 278.248 Q 179.570 278.229 179.675 278.107 Q 179.781 277.984 179.796 277.836 Q 179.810 277.689 179.984 277.523 Q 180.157 277.356 180.219 274.622 Q 180.281 271.888 180.167 270.240 Q 180.053 268.592 179.819 265.529 Q 179.585 262.467 179.409 260.384 Q 179.233 258.301 179.029 254.123 Q 178.825 249.946 178.778 247.082 Q 178.731 244.218 178.729 242.205 Q 178.727 240.192 178.497 238.546 Q 178.523 238.407 178.373 238.631 Q 178.223 238.854 178.179 238.969 "></path>
    <path id="STROKE_6314394f-3655-4c6c-a922-6b4271214811" opacity="1.000" fill="none" stroke="#474444" stroke-width="5.369" stroke-opacity="1.000" stroke-linecap="round" stroke-linejoin="round" d="M 165.799 227.697 Q 165.926 227.788 165.251 227.637 Q 164.576 227.487 163.764 228.015 Q 162.953 228.543 162.211 229.461 Q 161.469 230.379 161.153 230.867 Q 160.837 231.354 160.654 231.669 Q 160.470 231.985 160.311 232.299 Q 160.152 232.612 159.662 233.669 Q 159.173 234.726 158.731 236.023 Q 158.290 237.320 157.990 238.622 Q 157.690 239.924 157.590 241.566 Q 157.490 243.209 157.538 244.561 Q 157.585 245.914 158.154 247.390 Q 158.723 248.866 159.510 249.894 Q 160.297 250.921 160.859 251.481 Q 161.420 252.041 162.207 252.559 Q 162.995 253.078 164.152 253.228 Q 165.310 253.379 166.165 253.314 Q 167.020 253.250 168.364 252.692 Q 169.709 252.133 171.117 251.041 Q 172.526 249.949 173.249 249.223 Q 173.972 248.497 174.592 247.745 Q 175.212 246.992 175.637 246.486 Q 176.062 245.979 176.863 244.627 Q 177.663 243.275 178.080 241.928 Q 178.496 240.582 178.685 239.854 Q 178.874 239.125 178.961 237.640 Q 179.048 236.155 178.941 234.584 Q 178.834 233.013 178.422 231.671 Q 178.009 230.329 177.557 229.410 Q 177.106 228.492 176.446 227.668 Q 175.787 226.843 175.050 226.371 Q 174.313 225.899 173.552 225.645 Q 172.791 225.390 171.153 225.566 Q 169.514 225.741 168.597 225.969 Q 167.680 226.197 167.366 226.277 "></path>
    <path id="STROKE_78eda4a1-6d0b-455f-81c6-40411c3d72fd" opacity="1.000" fill="none" stroke="#474444" stroke-width="5.369" stroke-opacity="1.000" stroke-linecap="round" stroke-linejoin="round" d="M 266.485 221.513 Q 266.456 221.380 266.419 225.930 Q 266.382 230.480 266.351 234.519 Q 266.319 238.558 266.280 240.853 Q 266.241 243.149 266.195 244.582 Q 266.149 246.016 266.135 246.952 Q 266.120 247.888 266.107 248.494 Q 266.094 249.100 265.980 252.384 Q 265.867 255.669 265.994 258.535 Q 266.121 261.401 266.322 263.060 Q 266.522 264.718 267.398 268.725 "></path>
    <path id="STROKE_320e2acb-52d1-4d0a-94c2-e99372f9f579" opacity="1.000" fill="none" stroke="#474444" stroke-width="5.369" stroke-opacity="1.000" stroke-linecap="round" stroke-linejoin="round" d="M 268.505 220.367 Q 268.702 220.160 269.347 219.538 Q 269.993 218.917 271.177 218.545 Q 272.361 218.172 273.799 218.380 Q 275.237 218.588 275.987 218.814 Q 276.737 219.039 277.842 219.640 Q 278.948 220.241 279.486 220.682 Q 280.025 221.123 280.293 221.378 Q 280.562 221.633 280.744 221.831 Q 280.926 222.029 281.093 222.223 Q 281.259 222.418 281.357 222.562 Q 281.455 222.706 281.855 223.227 Q 282.254 223.748 282.981 224.919 Q 283.708 226.091 284.243 227.977 Q 284.778 229.863 284.909 231.884 Q 285.040 233.905 284.806 235.805 Q 284.573 237.705 284.202 238.877 Q 283.831 240.049 283.477 241.058 Q 283.123 242.068 282.631 243.179 Q 282.138 244.290 281.313 245.156 Q 280.488 246.022 279.949 246.473 Q 279.410 246.924 278.625 247.231 Q 277.840 247.538 277.085 247.569 Q 276.330 247.599 275.546 247.477 Q 274.762 247.355 273.184 246.658 Q 271.606 245.962 266.798 241.566 "></path>
    <path id="STROKE_60ea6479-1154-4cd2-9fa8-d8a27990c4e3" opacity="1.000" fill="none" stroke="#474444" stroke-width="5.369" stroke-opacity="1.000" stroke-linecap="round" stroke-linejoin="round" d="M 295.848 244.467 Q 295.871 244.397 295.938 244.218 Q 296.005 244.039 296.259 243.314 Q 295.770 242.956 294.520 244.575 Q 293.270 246.194 292.676 247.214 Q 292.082 248.234 291.792 248.768 Q 291.501 249.302 291.167 250.143 Q 290.832 250.984 290.531 251.874 Q 290.229 252.765 290.129 254.233 Q 290.029 255.701 290.031 256.560 Q 290.032 257.419 290.340 258.976 Q 290.647 260.533 291.025 261.575 Q 291.402 262.617 291.670 263.094 Q 291.938 263.571 292.219 263.901 Q 292.500 264.230 293.068 264.388 Q 293.635 264.547 294.277 264.320 Q 294.919 264.094 295.203 263.842 Q 295.487 263.589 296.003 263.129 Q 296.520 262.669 297.081 261.721 Q 297.642 260.774 298.095 259.486 Q 298.549 258.198 298.903 255.960 Q 299.256 253.721 299.378 252.488 Q 299.500 251.255 299.555 249.960 Q 299.610 248.665 299.619 247.466 Q 299.628 246.266 299.719 245.036 Q 299.809 243.806 299.995 242.776 Q 299.881 242.721 300.135 246.347 Q 300.389 249.973 300.730 252.841 Q 301.071 255.708 301.325 257.405 Q 301.578 259.101 301.769 260.053 Q 301.960 261.004 302.609 262.082 Q 303.257 263.159 303.739 263.729 Q 304.221 264.298 304.998 264.983 Q 305.775 265.667 306.267 266.098 Q 306.759 266.528 307.541 266.706 Q 308.324 266.884 308.735 266.873 Q 309.146 266.862 309.557 266.844 Q 309.969 266.826 310.607 266.082 Q 311.245 265.339 311.852 264.266 Q 312.459 263.193 313.046 261.970 Q 313.632 260.748 313.996 259.928 Q 314.360 259.109 314.740 257.333 Q 315.121 255.557 315.228 254.071 Q 315.336 252.584 315.376 251.641 Q 315.416 250.697 315.433 249.982 Q 315.450 249.267 315.465 247.912 Q 315.479 246.558 315.491 245.086 Q 315.502 243.614 315.522 241.476 Q 315.543 239.338 315.591 237.889 Q 315.640 236.440 315.671 235.093 Q 315.702 233.746 315.752 233.063 Q 315.801 232.380 315.616 230.185 Q 315.431 227.989 315.324 226.204 Q 315.218 224.419 315.272 222.896 Q 315.438 223.006 314.815 225.465 Q 314.192 227.924 313.888 231.082 Q 313.585 234.239 313.542 237.313 Q 313.499 240.387 313.724 243.639 Q 313.948 246.892 314.267 249.514 Q 314.587 252.137 315.045 254.586 Q 315.503 257.035 315.867 258.414 Q 316.231 259.794 316.556 260.792 Q 316.880 261.790 317.465 262.794 Q 318.050 263.798 318.704 264.512 Q 319.358 265.227 320.038 265.772 Q 320.719 266.318 321.528 266.523 Q 322.338 266.727 323.128 266.755 Q 323.919 266.783 324.702 266.360 Q 325.486 265.936 325.971 265.552 Q 326.455 265.168 327.294 264.246 Q 328.133 263.324 328.845 262.239 Q 329.557 261.155 329.935 260.283 Q 330.312 259.411 330.668 258.150 Q 331.023 256.889 331.233 255.738 Q 331.442 254.588 331.618 253.285 Q 331.794 251.983 331.949 248.221 Q 332.104 244.459 332.134 242.476 Q 332.164 240.493 332.184 239.537 Q 332.204 238.581 332.258 236.396 Q 332.311 234.212 332.345 232.879 Q 332.378 231.547 332.413 229.345 Q 332.448 227.143 332.507 225.635 Q 332.565 224.128 331.726 221.906 Q 331.529 222.205 331.773 226.280 Q 332.017 230.354 332.074 235.055 Q 332.130 239.756 332.127 241.993 Q 332.123 244.229 332.095 245.337 Q 332.066 246.445 332.084 250.698 Q 332.102 254.952 332.161 257.226 Q 332.221 259.500 332.234 260.740 Q 332.247 261.979 332.606 263.046 Q 332.844 263.012 333.558 259.146 Q 334.271 255.280 334.901 252.484 Q 335.531 249.688 335.957 248.157 Q 336.383 246.625 336.837 245.422 Q 337.291 244.219 337.544 243.636 Q 337.798 243.053 338.007 242.591 Q 338.217 242.129 338.714 241.334 Q 339.211 240.540 339.720 239.977 Q 340.229 239.414 340.919 239.011 Q 341.609 238.608 342.221 238.460 Q 342.832 238.311 343.424 238.340 Q 344.016 238.369 344.764 238.785 Q 345.512 239.202 346.128 239.806 Q 346.744 240.410 347.238 241.850 Q 347.731 243.290 347.985 244.694 Q 348.239 246.097 348.435 249.579 Q 348.631 253.061 348.460 261.786 "></path>
    <path id="STROKE_f5645b5f-f1cf-4190-ae76-9a548c1406a7" opacity="1.000" fill="none" stroke="#474444" stroke-width="5.369" stroke-opacity="1.000" stroke-linecap="round" stroke-linejoin="round" d="M 308.114 239.603 Q 308.131 239.554 309.538 239.251 Q 310.944 238.948 311.772 238.761 Q 312.601 238.574 314.938 238.069 Q 317.274 237.565 322.098 237.399 "></path>
    <path id="STROKE_a355e9e5-b52f-4cbb-a44f-db062c59e064" opacity="1.000" fill="none" stroke="#474444" stroke-width="5.369" stroke-opacity="1.000" stroke-linecap="round" stroke-linejoin="round" d="M 349.924 262.317 Q 350.190 262.284 351.155 262.365 Q 352.120 262.445 353.688 261.718 Q 355.256 260.990 356.172 260.426 Q 357.087 259.861 358.119 259.079 Q 359.151 258.297 360.240 257.414 Q 361.328 256.530 362.283 255.550 Q 363.237 254.571 363.720 254.003 Q 364.203 253.435 364.832 252.232 Q 365.462 251.028 365.906 249.752 Q 366.349 248.476 366.588 246.883 Q 366.827 245.290 366.653 243.609 Q 366.479 241.929 366.065 240.562 Q 365.652 239.196 365.335 238.333 Q 365.018 237.471 364.672 236.766 Q 364.326 236.061 364.079 235.637 Q 363.832 235.213 363.222 234.926 Q 362.612 234.638 361.980 234.732 Q 361.348 234.825 361.098 234.948 Q 360.848 235.071 360.186 235.741 Q 359.523 236.412 359.127 237.061 Q 358.731 237.710 358.321 238.646 Q 357.912 239.581 357.674 240.789 Q 357.436 241.996 357.359 243.338 Q 357.282 244.680 357.795 246.368 Q 358.307 248.055 358.787 249.126 Q 359.267 250.198 360.169 252.062 Q 361.072 253.926 361.893 255.830 Q 362.715 257.733 363.125 258.754 Q 363.535 259.775 364.478 263.453 Q 365.422 267.131 365.888 269.310 Q 366.354 271.490 366.553 272.643 Q 366.752 273.797 366.817 274.373 Q 366.883 274.950 366.921 275.654 Q 366.959 276.357 366.990 277.558 Q 367.021 278.759 366.832 279.982 Q 366.642 281.205 366.309 282.106 Q 365.976 283.007 365.708 283.466 Q 365.440 283.924 365.107 284.192 Q 364.774 284.460 364.354 284.493 Q 363.935 284.525 363.252 284.097 Q 362.568 283.670 361.553 282.300 Q 360.538 280.929 359.715 279.161 Q 358.892 277.393 358.413 275.929 Q 357.934 274.465 357.664 272.853 Q 357.395 271.240 357.339 270.262 Q 357.282 269.283 357.369 268.557 Q 357.456 267.832 358.274 266.645 Q 359.093 265.459 359.877 264.610 Q 360.660 263.761 361.518 263.188 Q 362.376 262.614 363.140 262.163 Q 363.904 261.712 366.163 261.803 Q 368.422 261.894 369.788 261.964 Q 371.154 262.033 371.823 262.060 Q 372.493 262.088 373.274 261.960 Q 374.055 261.832 375.001 261.315 Q 375.947 260.797 376.785 259.956 Q 377.622 259.115 378.347 258.159 Q 379.072 257.202 379.426 255.894 Q 379.780 254.586 379.906 253.854 Q 380.031 253.123 380.079 251.293 Q 380.127 249.462 380.167 248.104 Q 380.207 246.746 379.814 245.600 Q 379.628 245.460 378.978 247.165 Q 378.328 248.869 378.125 251.099 Q 377.923 253.329 377.936 254.473 Q 377.949 255.616 378.069 256.409 Q 378.189 257.203 378.691 258.097 Q 379.194 258.992 379.670 259.583 Q 380.146 260.174 380.961 260.574 Q 381.777 260.974 382.709 261.042 Q 383.641 261.108 384.360 261.098 Q 385.079 261.088 386.010 260.614 Q 386.942 260.139 388.022 259.050 Q 389.103 257.962 389.658 257.194 Q 390.213 256.427 390.660 255.702 Q 391.107 254.977 391.529 253.961 Q 391.952 252.946 393.368 248.138 L 393.375 248.138 Q 393.315 248.063 392.974 250.850 Q 392.634 253.638 392.177 261.523 Q 392.324 261.670 392.831 259.923 Q 393.338 258.177 393.720 256.636 Q 394.101 255.094 394.552 253.352 Q 395.003 251.609 395.246 250.693 Q 395.490 249.777 395.895 248.807 Q 396.301 247.836 396.700 247.178 Q 397.100 246.521 397.502 245.989 Q 397.905 245.458 398.500 245.245 Q 399.096 245.033 399.709 245.001 Q 400.323 244.969 400.829 245.124 Q 401.334 245.278 401.865 245.901 Q 402.396 246.523 402.559 248.017 Q 402.723 249.510 402.717 250.478 Q 402.710 251.447 402.647 253.356 Q 402.584 255.266 402.489 256.217 Q 402.395 257.167 402.374 257.571 Q 402.353 257.974 402.515 258.411 Q 402.676 258.847 403.261 258.600 Q 403.846 258.352 404.161 257.969 Q 404.476 257.585 404.945 257.150 Q 405.414 256.714 405.849 256.258 Q 406.285 255.802 406.747 255.337 Q 407.210 254.872 407.648 254.420 Q 408.087 253.968 408.856 253.191 Q 409.625 252.415 410.113 251.972 Q 410.600 251.530 410.913 251.247 Q 411.225 250.964 411.978 250.345 Q 412.731 249.726 413.347 249.294 Q 413.962 248.863 415.741 247.388 Q 415.690 247.201 414.281 248.479 Q 412.872 249.757 411.894 251.021 Q 410.917 252.284 410.320 253.296 Q 409.724 254.307 409.421 255.550 Q 409.118 256.792 409.053 257.653 Q 408.989 258.515 409.066 259.348 Q 409.143 260.180 409.578 260.972 Q 410.013 261.765 410.576 262.188 Q 411.139 262.610 411.314 262.703 Q 411.489 262.796 411.996 262.913 Q 412.502 263.029 412.810 262.979 Q 413.117 262.928 413.330 262.921 Q 413.542 262.913 414.033 262.583 Q 414.523 262.252 415.188 261.545 Q 415.853 260.838 416.678 259.798 Q 417.503 258.759 418.413 257.048 Q 419.324 255.338 419.960 253.100 Q 420.597 250.863 420.844 249.648 Q 421.092 248.434 421.383 246.483 Q 421.674 244.533 421.806 243.518 Q 421.938 242.504 422.071 241.362 Q 422.203 240.219 422.268 239.626 Q 422.332 239.032 422.403 238.343 Q 422.473 237.653 422.650 235.303 Q 422.828 232.953 423.083 230.886 Q 423.337 228.819 424.424 226.480 Q 424.552 226.536 424.328 231.740 Q 424.105 236.943 424.012 239.831 Q 423.919 242.718 423.913 244.079 Q 423.908 245.440 423.870 246.603 Q 423.833 247.765 423.867 249.426 Q 423.902 251.087 424.033 251.981 Q 424.165 252.875 424.326 253.652 Q 424.486 254.429 424.814 255.424 Q 425.142 256.420 425.788 257.274 Q 426.434 258.127 428.237 258.866 Q 430.040 259.605 430.324 259.685 "></path>
    <path id="STROKE_ebb672e4-f4a2-4588-bcee-810a6fb392e6" opacity="1.000" fill="none" stroke="#474444" stroke-width="5.369" stroke-opacity="1.000" stroke-linecap="round" stroke-linejoin="round" d="M 384.557 232.828 L 384.557 232.828 "></path>
    <path id="STROKE_a0c0779d-2031-43d1-aaba-bb2f0778b5fb" opacity="1.000" fill="none" stroke="#474444" stroke-width="5.369" stroke-opacity="1.000" stroke-linecap="round" stroke-linejoin="round" d="M 430.991 259.789 Q 431.198 259.765 431.893 259.854 Q 432.589 259.943 433.525 259.521 Q 434.460 259.098 435.490 258.073 Q 436.520 257.047 437.246 255.925 Q 437.972 254.804 438.387 253.879 Q 438.802 252.953 438.932 251.266 Q 439.061 249.579 439.008 246.124 Q 438.911 246.028 438.717 247.708 Q 438.523 249.388 438.551 250.723 Q 438.579 252.057 438.739 253.060 Q 438.899 254.062 439.203 254.813 Q 439.506 255.564 439.934 256.075 Q 440.361 256.585 440.966 256.821 Q 441.571 257.056 442.684 257.071 Q 443.797 257.086 444.759 256.955 Q 445.720 256.824 446.692 256.328 Q 447.663 255.833 448.681 255.013 Q 449.698 254.193 450.577 252.677 Q 451.457 251.161 451.809 250.314 Q 452.162 249.467 452.470 249.018 Q 452.778 248.568 453.175 248.349 Q 453.326 248.491 452.574 251.070 Q 451.821 253.649 451.374 255.723 Q 450.926 257.796 450.441 261.293 Q 450.626 261.443 451.923 258.781 Q 453.219 256.120 453.938 254.605 Q 454.657 253.091 455.038 252.255 Q 455.418 251.419 455.995 250.309 Q 456.572 249.199 457.206 248.325 Q 457.840 247.451 458.433 246.851 Q 459.026 246.252 459.844 245.806 Q 460.661 245.360 461.341 245.270 Q 462.021 245.180 462.569 245.120 Q 463.117 245.061 463.824 245.466 Q 464.531 245.870 465.094 246.520 Q 465.656 247.170 466.028 248.414 Q 466.400 249.657 466.436 251.337 Q 466.473 253.016 466.322 254.364 Q 466.170 255.711 465.866 256.784 Q 465.561 257.857 465.303 258.682 Q 465.045 259.506 465.036 259.615 "></path>
    <path id="STROKE_7c33c185-fce3-44d7-aef9-65bacf969354" opacity="1.000" fill="none" stroke="#474444" stroke-width="5.369" stroke-opacity="1.000" stroke-linecap="round" stroke-linejoin="round" d="M 475.871 246.543 Q 475.676 246.524 475.118 246.364 Q 474.560 246.205 473.756 246.452 Q 472.953 246.699 471.865 247.661 Q 470.777 248.624 470.045 249.418 Q 469.314 250.212 468.729 251.158 Q 468.144 252.104 467.826 252.645 Q 467.509 253.185 467.148 254.099 Q 466.787 255.012 466.639 256.057 Q 466.492 257.102 466.565 257.953 Q 466.638 258.803 466.928 259.422 Q 467.217 260.040 467.780 260.415 Q 468.344 260.789 468.952 260.947 Q 469.559 261.106 470.253 261.168 Q 470.946 261.231 471.764 261.046 Q 472.581 260.862 473.780 259.972 Q 474.978 259.082 476.031 258.110 Q 477.083 257.138 478.271 255.233 Q 479.459 253.329 479.939 252.266 Q 480.418 251.204 480.933 250.251 Q 481.448 249.297 481.823 248.704 Q 482.199 248.111 482.472 247.813 Q 482.744 247.515 483.055 247.522 Q 483.312 247.710 482.867 250.219 Q 482.422 252.729 481.709 255.305 Q 480.996 257.882 480.476 259.402 Q 479.957 260.923 479.391 262.470 Q 478.826 264.016 478.197 265.845 Q 477.568 267.675 477.098 268.963 Q 476.627 270.251 476.164 271.292 Q 475.702 272.332 475.119 273.333 Q 474.536 274.333 473.584 275.537 Q 472.631 276.741 471.967 277.429 Q 471.303 278.117 470.624 278.792 Q 469.945 279.467 469.182 280.160 Q 468.419 280.852 467.861 281.195 Q 467.303 281.537 466.691 281.520 Q 466.475 281.140 466.578 279.809 Q 466.682 278.477 467.302 277.124 Q 467.921 275.771 468.730 274.601 Q 469.539 273.432 471.061 272.119 Q 472.583 270.806 473.438 270.167 Q 474.293 269.528 475.530 268.844 Q 476.766 268.161 478.213 267.759 Q 479.660 267.358 481.228 266.903 Q 482.796 266.448 484.996 265.778 "></path>
    <path id="STROKE_8d508c0a-3aa3-4526-82a5-2a42ddedb160" opacity="1.000" fill="none" stroke="#474444" stroke-width="5.369" stroke-opacity="1.000" stroke-linecap="round" stroke-linejoin="round" d="M 450.996 233.347 Q 450.793 233.334 450.414 233.161 Q 450.550 233.162 450.630 233.163 "></path>
    <path id="STROKE_56b71128-2dcd-4562-9e97-23f5c43c1952" opacity="1.000" fill="none" stroke="#474444" stroke-width="9.485" stroke-opacity="1.000" stroke-linecap="round" stroke-linejoin="round" d="M 403.432 299.519 L 417.749 299.650 L 432.065 299.780 L 446.381 299.911 L 460.697 300.042 L 475.013 300.172 L 489.329 300.303 L 503.645 300.434 L 517.961 300.564 L 532.277 300.695 L 546.593 300.825 L 560.909 300.956 L 575.225 301.087 "></path>
    <path id="STROKE_90c2122e-4362-4e6e-a19c-a5abc67b7fb7" opacity="1.000" fill="none" stroke="#474444" stroke-width="9.485" stroke-opacity="1.000" stroke-linecap="round" stroke-linejoin="round" d="M 404.478 184.991 L 418.794 185.121 L 433.110 185.252 L 447.426 185.383 L 461.742 185.513 L 476.058 185.644 L 490.374 185.774 L 504.690 185.905 L 519.006 186.036 L 533.322 186.166 L 547.638 186.297 L 561.954 186.428 L 576.270 186.558 "></path>
    <path id="STROKE_3fd9ad4c-ad9f-4571-87a0-65979e559afd" opacity="1.000" fill="none" stroke="#474444" stroke-width="9.485" stroke-opacity="1.000" stroke-linecap="round" stroke-linejoin="round" d="M 576.270 186.558 L 576.140 200.874 L 576.009 215.190 L 575.878 229.506 L 575.748 243.822 L 575.617 258.138 L 575.486 272.455 L 575.356 286.771 L 575.225 301.087 "></path>
    <path id="STROKE_e77cb95a-6e31-4008-be9a-6bc98e0607ce" opacity="1.000" fill="none" stroke="#474444" stroke-width="5.369" stroke-opacity="1.000" stroke-linecap="round" stroke-linejoin="round" d="M -1150.778 252.201 Q -1150.452 252.083 -1149.091 248.827 Q -1147.730 245.571 -1147.151 243.782 Q -1146.572 241.993 -1146.351 241.283 Q -1146.130 240.573 -1145.574 237.821 Q -1145.018 235.068 -1144.628 232.627 Q -1144.237 230.186 -1143.106 226.868 Q -1141.975 223.549 -1141.071 221.284 Q -1140.166 219.019 -1139.162 215.861 Q -1138.158 212.703 -1137.540 211.138 Q -1136.923 209.574 -1136.515 208.380 Q -1136.107 207.185 -1135.909 206.388 Q -1135.712 205.592 -1135.578 205.004 Q -1135.445 204.416 -1134.776 202.674 Q -1134.106 200.931 -1133.769 199.841 Q -1133.432 198.750 -1133.032 197.756 Q -1132.689 197.748 -1132.598 199.045 Q -1132.507 200.342 -1132.081 202.322 Q -1131.655 204.302 -1131.328 206.767 Q -1131.001 209.232 -1130.261 212.509 Q -1129.522 215.787 -1128.809 218.887 Q -1128.096 221.987 -1127.644 224.410 Q -1127.191 226.833 -1126.892 228.021 Q -1126.592 229.208 -1126.023 231.368 Q -1125.455 233.528 -1125.188 234.534 Q -1124.922 235.540 -1123.865 239.253 Q -1122.808 242.967 -1122.359 244.925 Q -1121.909 246.883 -1121.328 248.222 Q -1120.747 249.561 -1120.394 250.246 Q -1120.041 250.930 -1120.092 251.988 "></path>
    <path id="STROKE_a25e01dd-7478-4d88-9529-3d8e90fe1693" opacity="1.000" fill="none" stroke="#474444" stroke-width="5.369" stroke-opacity="1.000" stroke-linecap="round" stroke-linejoin="round" d="M -1143.633 233.060 Q -1143.300 233.378 -1140.332 233.709 Q -1137.363 234.039 -1134.894 233.872 Q -1132.424 233.705 -1131.018 233.530 Q -1129.612 233.356 -1129.012 233.571 Q -1128.413 233.787 -1128.359 233.828 "></path>
    <path id="STROKE_93406cee-15bd-4117-a044-b798c2bc7817" opacity="1.000" fill="none" stroke="#474444" stroke-width="5.369" stroke-opacity="1.000" stroke-linecap="round" stroke-linejoin="round" d="M -1111.359 207.530 Q -1111.387 207.206 -1111.777 212.601 Q -1112.168 217.996 -1112.428 220.900 Q -1112.688 223.805 -1112.744 228.328 Q -1112.800 232.851 -1112.815 235.196 Q -1112.830 237.540 -1112.725 239.095 Q -1112.620 240.651 -1112.454 241.444 Q -1112.287 242.237 -1112.059 242.598 Q -1111.831 242.959 -1111.516 243.343 Q -1111.202 243.728 -1109.651 243.864 Q -1108.100 244.000 -1106.426 243.981 Q -1104.752 243.962 -1100.547 244.969 "></path>
    <path id="STROKE_0712e88b-cb4c-4172-a677-581c8b0ef270" opacity="1.000" fill="none" stroke="#474444" stroke-width="5.369" stroke-opacity="1.000" stroke-linecap="round" stroke-linejoin="round" d="M -1090.347 223.447 Q -1090.199 223.529 -1090.587 223.335 Q -1090.975 223.141 -1092.008 223.902 Q -1093.041 224.662 -1094.081 226.201 Q -1095.121 227.739 -1095.813 228.890 Q -1096.504 230.041 -1097.563 232.592 Q -1098.621 235.144 -1099.152 237.225 Q -1099.684 239.306 -1099.845 240.626 Q -1100.006 241.946 -1099.967 243.141 Q -1099.927 244.336 -1099.090 245.281 Q -1098.254 246.225 -1097.201 246.683 Q -1096.148 247.140 -1095.135 247.362 Q -1094.121 247.583 -1092.945 247.301 Q -1091.769 247.020 -1090.514 246.119 Q -1089.258 245.218 -1088.103 243.696 Q -1086.948 242.175 -1086.320 240.688 Q -1085.692 239.200 -1085.264 237.983 Q -1084.836 236.767 -1084.633 233.810 Q -1084.429 230.854 -1084.486 228.886 Q -1084.542 226.918 -1084.703 225.323 Q -1084.863 223.728 -1084.931 221.771 Q -1084.888 221.806 -1084.888 221.792 Q -1084.888 221.778 -1084.897 221.747 Q -1084.906 221.717 -1084.762 221.846 Q -1084.618 221.975 -1084.505 222.296 Q -1084.393 222.617 -1084.441 222.528 Q -1084.490 222.439 -1084.434 222.587 Q -1084.379 222.736 -1083.987 224.222 Q -1083.596 225.707 -1083.518 232.613 Q -1083.440 239.518 -1083.472 243.407 Q -1083.505 247.295 -1083.696 250.500 Q -1083.887 253.705 -1084.420 256.126 Q -1084.953 258.547 -1085.283 259.762 Q -1085.614 260.977 -1086.132 261.981 Q -1086.650 262.985 -1087.241 263.624 Q -1087.831 264.262 -1088.591 264.507 Q -1089.350 264.752 -1090.230 264.576 Q -1091.111 264.400 -1091.998 263.328 Q -1092.885 262.257 -1093.375 261.344 Q -1093.866 260.432 -1094.090 259.106 Q -1094.314 257.781 -1093.798 256.165 Q -1093.283 254.549 -1091.761 252.402 Q -1090.240 250.254 -1087.643 247.894 Q -1085.046 245.534 -1082.891 243.649 Q -1080.736 241.765 -1078.780 239.969 Q -1076.824 238.172 -1075.704 237.282 Q -1074.583 236.393 -1073.593 235.731 Q -1072.603 235.069 -1071.490 234.189 Q -1070.377 233.310 -1068.958 232.366 Q -1067.539 231.423 -1065.927 230.811 Q -1066.000 230.699 -1067.018 230.970 Q -1068.036 231.242 -1069.189 232.013 Q -1070.341 232.784 -1070.868 233.282 Q -1071.396 233.779 -1071.809 234.077 Q -1072.223 234.375 -1073.280 235.720 Q -1074.336 237.065 -1074.869 237.902 Q -1075.402 238.738 -1075.997 240.049 Q -1076.592 241.359 -1076.731 242.235 Q -1076.870 243.111 -1076.955 244.100 Q -1077.040 245.089 -1076.968 245.813 Q -1076.896 246.537 -1076.308 247.301 Q -1075.719 248.064 -1074.892 248.583 Q -1074.066 249.101 -1072.491 249.422 Q -1070.916 249.742 -1069.239 249.477 Q -1067.561 249.212 -1066.118 248.618 Q -1064.674 248.025 -1062.773 246.968 Q -1060.871 245.910 -1059.553 244.803 Q -1058.236 243.695 -1057.480 242.992 Q -1056.724 242.290 -1056.240 241.158 Q -1055.755 240.026 -1055.820 238.911 Q -1055.885 237.795 -1056.532 236.395 Q -1057.179 234.995 -1058.154 233.942 Q -1059.130 232.889 -1060.546 231.878 Q -1061.962 230.866 -1064.306 230.696 Q -1063.744 230.688 -1062.501 230.660 Q -1061.257 230.632 -1059.536 231.149 Q -1057.815 231.667 -1056.457 232.233 Q -1055.099 232.798 -1053.977 233.236 Q -1052.855 233.674 -1052.355 233.954 Q -1051.854 234.234 -1051.653 234.292 Q -1051.451 234.350 -1050.986 235.599 Q -1050.522 236.848 -1050.454 237.913 Q -1050.387 238.978 -1049.912 246.269 L -1049.875 246.270 Q -1049.738 246.203 -1049.442 243.542 Q -1049.146 240.881 -1048.542 238.533 Q -1047.939 236.185 -1047.627 235.005 Q -1047.314 233.825 -1046.550 232.317 Q -1045.786 230.808 -1045.291 229.993 Q -1044.796 229.179 -1043.634 228.239 Q -1042.472 227.299 -1039.579 227.332 Q -1036.686 227.365 -1036.148 227.398 "></path>
    <path id="STROKE_7ff9904a-da53-4fbe-a941-5127fd5d228e" opacity="1.000" fill="none" stroke="#474444" stroke-width="5.369" stroke-opacity="1.000" stroke-linecap="round" stroke-linejoin="round" d="M -1035.751 228.917 Q -1035.592 229.080 -1034.623 228.761 Q -1033.653 228.443 -1032.475 227.273 Q -1031.297 226.102 -1030.712 225.419 Q -1030.126 224.735 -1029.618 223.728 Q -1029.111 222.721 -1029.147 220.946 Q -1029.706 220.474 -1030.609 222.523 Q -1031.512 224.571 -1031.883 226.544 Q -1032.255 228.516 -1032.270 230.316 Q -1032.284 232.117 -1031.992 233.680 Q -1031.700 235.244 -1031.139 236.325 Q -1030.579 237.407 -1029.930 238.257 Q -1029.282 239.107 -1028.573 239.470 Q -1027.864 239.833 -1026.795 239.943 Q -1025.727 240.053 -1024.368 239.127 Q -1023.010 238.202 -1021.933 236.888 Q -1020.855 235.575 -1019.919 233.721 Q -1018.982 231.867 -1018.474 229.361 Q -1017.966 226.854 -1017.717 223.783 Q -1017.467 220.713 -1016.999 216.629 Q -1016.531 212.544 -1016.224 210.212 Q -1015.918 207.879 -1015.830 206.977 Q -1015.742 206.075 -1015.630 204.494 Q -1015.518 202.913 -1015.518 201.951 Q -1015.517 200.989 -1015.634 200.352 Q -1015.750 199.715 -1016.298 199.524 Q -1016.496 199.508 -1017.275 203.324 Q -1018.054 207.140 -1018.506 211.918 Q -1018.958 216.696 -1019.006 220.592 Q -1019.054 224.487 -1018.870 226.899 Q -1018.685 229.311 -1018.479 230.562 Q -1018.273 231.812 -1017.912 233.349 Q -1017.550 234.886 -1017.131 236.018 Q -1016.712 237.150 -1016.033 238.091 Q -1015.355 239.031 -1014.457 239.526 Q -1013.559 240.021 -1012.855 240.134 Q -1012.150 240.246 -1011.405 240.094 Q -1010.660 239.941 -1009.450 238.357 Q -1008.240 236.773 -1007.477 235.464 Q -1006.714 234.155 -1005.872 232.496 Q -1005.029 230.838 -1004.154 227.893 Q -1003.279 224.948 -1002.890 223.296 Q -1002.500 221.644 -1002.072 220.511 Q -1001.644 219.378 -1001.116 218.898 Q -1000.588 218.417 -1000.137 218.436 Q -999.685 218.455 -999.319 218.476 Q -998.953 218.496 -998.556 219.533 Q -998.159 220.569 -997.975 222.045 Q -997.791 223.520 -997.772 235.309 Q -997.552 235.540 -996.666 233.988 Q -995.779 232.435 -995.207 231.453 Q -994.636 230.471 -994.282 229.865 Q -993.929 229.258 -993.066 227.770 Q -992.203 226.282 -991.124 224.828 Q -990.044 223.374 -989.242 222.585 Q -988.441 221.797 -987.719 221.354 Q -986.998 220.912 -986.233 220.830 Q -985.468 220.747 -984.831 221.328 Q -984.193 221.908 -983.938 223.891 Q -983.682 225.874 -983.704 228.747 Q -983.727 231.619 -984.626 234.882 Q -985.525 238.144 -985.538 238.144 "></path>
    <path id="STROKE_8c4ede70-c38a-4542-8845-d09f4a513b36" opacity="1.000" fill="none" stroke="#474444" stroke-width="5.369" stroke-opacity="1.000" stroke-linecap="round" stroke-linejoin="round" d="M -1030.230 204.893 Q -1030.156 204.910 -1030.804 204.706 Q -1030.736 204.509 -1030.330 204.428 Q -1029.925 204.348 -1029.756 204.325 "></path>
    <path id="STROKE_14a55d33-3203-43d2-812c-b685239e7dc2" opacity="1.000" fill="none" stroke="#474444" stroke-width="5.369" stroke-opacity="1.000" stroke-linecap="round" stroke-linejoin="round" d="M -1022.321 208.318 Q -1022.507 208.215 -1018.066 208.391 Q -1013.626 208.566 -1013.002 208.612 "></path>
    <path id="STROKE_c5353fb2-ab3f-407f-901b-fd5386a3adcb" opacity="1.000" fill="none" stroke="#474444" stroke-width="5.369" stroke-opacity="1.000" stroke-linecap="round" stroke-linejoin="round" d="M -978.962 206.766 Q -978.833 206.853 -978.191 211.180 Q -977.550 215.506 -976.900 218.705 Q -976.250 221.903 -975.808 223.704 Q -975.366 225.505 -974.994 227.096 Q -974.622 228.688 -974.139 230.846 Q -973.656 233.004 -973.108 234.936 Q -972.561 236.868 -971.915 238.274 Q -971.269 239.679 -970.881 240.384 Q -970.492 241.090 -969.615 242.468 Q -968.739 243.846 -968.130 244.891 Q -967.522 245.937 -966.349 246.496 Q -966.228 246.036 -966.254 246.041 Q -966.473 245.409 -966.130 239.541 Q -965.786 233.673 -965.514 230.579 Q -965.242 227.485 -965.149 225.841 Q -965.056 224.197 -964.376 220.366 Q -963.696 216.535 -962.436 207.231 Q -962.436 207.271 -962.437 207.400 Q -962.437 207.360 -962.436 207.271 Q -962.437 207.400 -962.438 207.490 "></path>
    <path id="STROKE_e8c7e8c8-0529-4f4e-84b1-93e02fb7bb64" opacity="1.000" fill="none" stroke="#474444" stroke-width="5.369" stroke-opacity="1.000" stroke-linecap="round" stroke-linejoin="round" d="M -957.318 232.813 Q -957.667 233.457 -957.689 237.549 Q -957.711 241.642 -957.714 241.996 "></path>
    <path id="STROKE_919c8293-c10f-44f6-9a07-20ce0891e19c" opacity="1.000" fill="none" stroke="#474444" stroke-width="5.369" stroke-opacity="1.000" stroke-linecap="round" stroke-linejoin="round" d="M -955.902 214.617 Q -956.029 214.582 -956.156 213.971 Q -956.036 213.920 -955.945 213.908 "></path>
    <path id="STROKE_d21e7da6-38ec-49a5-8e48-f4c18edf7250" opacity="1.000" fill="none" stroke="#474444" stroke-width="5.369" stroke-opacity="1.000" stroke-linecap="round" stroke-linejoin="round" d="M -938.575 219.144 Q -938.644 218.862 -938.517 218.248 Q -938.390 217.633 -939.091 217.378 Q -939.793 217.124 -941.128 217.388 Q -942.464 217.652 -943.728 218.257 Q -944.992 218.863 -945.900 219.479 Q -946.808 220.095 -947.374 220.766 Q -947.940 221.437 -948.224 222.224 Q -948.508 223.010 -947.556 223.888 Q -946.603 224.765 -944.761 225.710 Q -942.918 226.654 -941.607 227.569 Q -940.295 228.484 -939.621 229.092 Q -938.948 229.700 -938.111 230.831 Q -937.274 231.961 -936.746 233.332 Q -936.217 234.703 -936.175 236.090 Q -936.132 237.478 -936.164 238.222 Q -936.195 238.966 -936.657 239.954 Q -937.119 240.942 -938.060 241.923 Q -939.002 242.904 -940.174 243.553 Q -941.346 244.202 -943.022 244.408 Q -944.698 244.615 -945.610 244.628 Q -946.522 244.641 -947.463 244.407 Q -948.403 244.173 -949.341 243.396 Q -950.280 242.619 -950.276 239.396 "></path>
    <path id="STROKE_02dc2d47-3c03-472e-b6cd-36190d250497" opacity="1.000" fill="none" stroke="#474444" stroke-width="5.369" stroke-opacity="1.000" stroke-linecap="round" stroke-linejoin="round" d="M -926.367 226.114 Q -926.388 225.972 -926.405 225.586 Q -926.423 225.201 -927.022 224.992 Q -927.194 225.066 -927.583 226.727 Q -927.972 228.388 -928.123 231.126 Q -928.275 233.864 -928.150 235.806 Q -928.025 237.749 -927.664 239.187 Q -927.303 240.625 -926.955 241.354 Q -926.607 242.083 -926.154 242.743 Q -925.701 243.403 -925.020 243.697 Q -924.339 243.990 -923.592 243.706 Q -922.846 243.422 -922.212 242.850 Q -921.578 242.279 -920.863 241.131 Q -920.149 239.983 -919.461 237.909 Q -918.773 235.834 -918.409 234.549 Q -918.044 233.265 -917.954 230.305 Q -917.864 227.346 -918.129 225.588 Q -918.393 223.829 -918.405 223.752 "></path>
    <path id="STROKE_d47cf2de-d22d-4054-8fcc-8f3850a01934" opacity="1.000" fill="none" stroke="#474444" stroke-width="5.369" stroke-opacity="1.000" stroke-linecap="round" stroke-linejoin="round" d="M -911.112 208.248 Q -911.347 208.680 -912.317 215.957 Q -913.287 223.235 -913.806 227.574 Q -914.324 231.912 -914.386 234.532 Q -914.449 237.152 -914.415 238.542 Q -914.382 239.931 -914.189 240.739 Q -913.997 241.547 -913.763 242.197 Q -913.529 242.847 -910.902 242.794 Q -908.275 242.741 -906.799 242.603 Q -905.323 242.465 -904.147 242.584 Q -902.971 242.703 -901.821 243.135 "></path>
    <path id="STROKE_26ee07c8-8045-4e71-a9d8-b6b8807dc1bc" opacity="1.000" fill="none" stroke="#474444" stroke-width="5.369" stroke-opacity="1.000" stroke-linecap="round" stroke-linejoin="round" d="M -895.839 231.624 Q -896.169 231.586 -896.648 235.827 Q -897.127 240.069 -897.008 242.421 Q -896.888 244.773 -896.823 244.930 "></path>
    <path id="STROKE_305f2674-68bc-43da-8106-4b8f5c4ed619" opacity="1.000" fill="none" stroke="#474444" stroke-width="5.369" stroke-opacity="1.000" stroke-linecap="round" stroke-linejoin="round" d="M -896.384 219.270 Q -896.577 219.216 -897.630 218.889 Q -897.629 218.852 -897.629 218.840 "></path>
    <path id="STROKE_59513a13-adcb-41f5-b0e7-8db6a144148e" opacity="1.000" fill="none" stroke="#474444" stroke-width="5.369" stroke-opacity="1.000" stroke-linecap="round" stroke-linejoin="round" d="M -878.657 219.691 Q -878.653 219.175 -878.654 219.299 Q -878.673 218.706 -880.379 219.256 Q -882.085 219.806 -883.466 220.652 Q -884.847 221.499 -885.751 222.253 Q -886.656 223.006 -887.116 223.686 Q -887.576 224.366 -887.808 225.168 Q -888.041 225.971 -887.509 227.122 Q -886.978 228.274 -885.474 229.798 Q -883.970 231.322 -882.504 232.795 Q -881.038 234.267 -880.076 235.458 Q -879.114 236.650 -878.777 238.008 Q -878.440 239.366 -878.378 240.274 Q -878.316 241.182 -878.649 242.144 Q -878.982 243.106 -879.991 244.071 Q -881.000 245.036 -882.012 245.559 Q -883.024 246.083 -884.462 246.295 Q -885.901 246.507 -886.844 246.432 Q -887.788 246.358 -888.806 245.843 Q -889.824 245.328 -890.078 244.350 Q -890.332 243.372 -890.330 243.110 "></path>
    <path id="STROKE_9438d608-0df5-4df9-8bf5-5365a0758c8d" opacity="1.000" fill="none" stroke="#474444" stroke-width="5.369" stroke-opacity="1.000" stroke-linecap="round" stroke-linejoin="round" d="M -872.620 242.717 Q -872.779 242.781 -871.480 242.724 Q -870.182 242.667 -868.206 241.372 Q -866.230 240.077 -865.139 238.948 Q -864.048 237.819 -863.624 237.231 Q -863.200 236.644 -862.861 236.068 Q -862.522 235.492 -862.274 234.544 Q -862.026 233.595 -862.194 232.639 Q -862.363 231.682 -862.745 230.913 Q -863.127 230.143 -864.040 229.807 Q -864.953 229.472 -865.963 229.737 Q -866.974 230.002 -868.220 231.084 Q -869.466 232.167 -870.214 232.961 Q -870.961 233.756 -871.595 234.944 Q -872.229 236.131 -872.325 237.374 Q -872.422 238.617 -872.362 239.364 Q -872.302 240.111 -871.690 240.778 Q -871.078 241.445 -870.425 242.048 Q -869.771 242.651 -868.530 243.347 Q -867.289 244.043 -865.839 244.419 Q -864.391 244.795 -863.300 244.818 Q -862.209 244.842 -861.470 244.660 Q -860.730 244.478 -859.300 243.769 Q -857.869 243.059 -855.719 240.284 Q -855.623 240.376 -854.956 248.085 Q -854.934 248.148 -854.445 245.232 Q -853.955 242.316 -853.237 239.968 Q -852.519 237.620 -851.882 236.053 Q -851.244 234.487 -850.360 233.139 Q -849.475 231.791 -848.711 231.082 Q -847.948 230.372 -847.262 229.795 Q -846.576 229.217 -844.982 228.590 Q -843.388 227.962 -841.007 227.779 Q -838.625 227.596 -835.354 227.702 "></path>
    <path id="STROKE_4ea5ac09-c26e-48e3-bd19-006b44d4464a" opacity="1.000" fill="none" stroke="#474444" stroke-width="9.485" stroke-opacity="1.000" stroke-linecap="round" stroke-linejoin="round" d="M -969.863 172.450 L -984.180 172.320 L -998.496 172.189 L -1012.812 172.058 L -1027.128 171.928 L -1041.444 171.797 L -1055.760 171.667 L -1070.076 171.536 L -1084.392 171.405 L -1098.708 171.275 L -1113.024 171.144 L -1127.340 171.013 L -1141.656 170.883 L -1155.972 170.752 L -1170.288 170.622 L -1184.604 170.491 L -1198.920 170.360 L -1213.236 170.230 L -1227.552 170.099 L -1241.868 169.968 L -1256.185 169.838 L -1270.501 169.707 L -1284.817 169.577 L -1299.133 169.446 L -1313.449 169.315 "></path>
    <path id="STROKE_da546445-b616-411c-91ff-80fbacda3ddf" opacity="1.000" fill="none" stroke="#474444" stroke-width="9.485" stroke-opacity="1.000" stroke-linecap="round" stroke-linejoin="round" d="M -1313.449 169.315 L -1313.579 183.631 L -1313.710 197.947 L -1313.841 212.263 L -1313.971 226.580 L -1314.102 240.896 L -1314.233 255.212 L -1314.363 269.528 L -1314.494 283.844 "></path>
    <path id="STROKE_200c2453-aa89-4c58-b7fe-2d9ce5b167fd" opacity="1.000" fill="none" stroke="#474444" stroke-width="9.485" stroke-opacity="1.000" stroke-linecap="round" stroke-linejoin="round" d="M -1314.494 283.844 L -1314.494 283.844 L -1314.494 283.844 L -1300.178 283.974 L -1285.862 284.105 L -1271.546 284.236 L -1257.230 284.366 L -1242.913 284.497 L -1228.597 284.628 L -1214.281 284.758 L -1199.965 284.889 L -1185.649 285.019 L -1171.333 285.150 L -1157.017 285.281 L -1142.701 285.411 L -1128.385 285.542 L -1114.069 285.672 L -1099.753 285.803 L -1085.437 285.934 L -1071.121 286.064 L -1056.805 286.195 L -1042.489 286.326 L -1028.173 286.456 L -1013.857 286.587 L -999.541 286.718 L -985.224 286.848 L -970.908 286.979 L -956.592 287.109 L -942.276 287.240 "></path>
    <path id="STROKE_ca9037de-7a2e-457e-93be-d185a476023b" opacity="1.000" fill="none" stroke="#474444" stroke-width="2.953" stroke-opacity="1.000" stroke-linecap="round" stroke-linejoin="round" d="M -1283.626 231.542 Q -1284.167 230.945 -1282.857 228.862 Q -1281.546 226.780 -1280.700 225.745 Q -1279.853 224.710 -1279.474 224.319 Q -1279.094 223.928 -1278.963 223.675 Q -1278.832 223.423 -1277.989 222.453 Q -1277.145 221.484 -1276.608 220.970 Q -1276.072 220.457 -1275.201 219.730 Q -1274.330 219.004 -1272.685 217.531 Q -1271.040 216.057 -1269.700 215.053 Q -1268.359 214.049 -1267.549 213.535 Q -1266.739 213.020 -1265.665 212.206 Q -1264.592 211.393 -1261.744 209.883 Q -1258.896 208.373 -1256.888 207.477 Q -1254.880 206.580 -1252.925 205.769 Q -1250.969 204.957 -1248.249 204.098 Q -1245.530 203.238 -1243.077 202.576 Q -1240.625 201.914 -1237.412 201.479 Q -1234.199 201.043 -1232.259 200.842 Q -1230.319 200.641 -1229.263 200.550 Q -1228.207 200.459 -1225.283 200.575 Q -1222.359 200.691 -1220.747 200.857 Q -1219.134 201.023 -1217.924 201.111 Q -1216.713 201.200 -1213.354 201.644 Q -1209.994 202.089 -1207.303 202.661 Q -1204.612 203.233 -1203.248 203.668 Q -1201.885 204.104 -1201.190 204.373 Q -1200.495 204.643 -1198.949 205.300 Q -1197.404 205.957 -1196.320 206.367 Q -1195.237 206.778 -1193.712 208.000 Q -1192.187 209.222 -1190.998 210.401 Q -1189.809 211.581 -1188.267 213.101 Q -1186.726 214.622 -1185.456 215.786 Q -1184.187 216.951 -1182.805 218.349 Q -1181.424 219.748 -1180.807 220.568 Q -1180.190 221.389 -1178.737 223.074 Q -1177.283 224.759 -1176.447 225.690 Q -1175.610 226.622 -1175.308 227.095 Q -1175.006 227.568 -1174.553 228.431 Q -1174.100 229.294 -1173.684 230.015 Q -1173.267 230.736 -1172.351 231.361 "></path>
    <path id="STROKE_c7c6cd2e-d712-45b1-a99c-fc734de9753a" opacity="1.000" fill="none" stroke="#474444" stroke-width="2.953" stroke-opacity="1.000" stroke-linecap="round" stroke-linejoin="round" d="M -1284.026 231.377 Q -1283.980 231.177 -1284.052 231.820 Q -1284.124 232.464 -1283.979 233.293 Q -1283.833 234.122 -1283.597 234.552 Q -1283.361 234.982 -1282.914 235.567 Q -1282.468 236.152 -1281.973 236.487 Q -1281.478 236.822 -1280.016 238.258 Q -1278.555 239.694 -1277.933 240.481 Q -1277.311 241.267 -1274.731 242.900 Q -1272.151 244.533 -1270.640 245.459 Q -1269.129 246.384 -1267.706 247.045 Q -1266.283 247.706 -1265.123 248.336 Q -1263.963 248.966 -1263.189 249.428 Q -1262.415 249.890 -1260.746 250.656 Q -1259.078 251.423 -1255.763 252.291 Q -1252.448 253.159 -1250.263 253.795 Q -1248.078 254.432 -1246.678 254.825 Q -1245.277 255.219 -1244.587 255.381 Q -1243.897 255.544 -1243.549 255.627 Q -1243.201 255.709 -1241.472 256.023 Q -1239.743 256.337 -1238.591 256.509 Q -1237.439 256.681 -1235.386 256.860 Q -1233.333 257.038 -1231.356 257.180 Q -1229.379 257.321 -1227.951 257.404 Q -1226.524 257.486 -1224.509 257.532 Q -1222.494 257.577 -1221.315 257.504 Q -1220.137 257.431 -1219.579 257.343 Q -1219.021 257.255 -1217.953 257.157 Q -1216.886 257.060 -1215.069 256.694 Q -1213.252 256.327 -1211.988 256.043 Q -1210.724 255.758 -1208.362 254.853 Q -1206.000 253.949 -1204.607 253.277 Q -1203.213 252.604 -1202.462 252.241 Q -1201.711 251.878 -1200.709 251.368 Q -1199.707 250.858 -1197.007 249.475 Q -1194.307 248.093 -1191.347 246.589 Q -1188.388 245.084 -1186.917 244.324 Q -1185.446 243.564 -1183.297 242.051 Q -1181.147 240.537 -1179.933 239.606 Q -1178.719 238.674 -1177.802 238.065 Q -1176.886 237.455 -1176.459 237.199 Q -1176.031 236.942 -1175.541 236.494 Q -1175.050 236.045 -1174.707 235.652 Q -1174.365 235.258 -1174.390 235.158 Q -1174.415 235.058 -1174.027 234.469 Q -1173.640 233.880 -1173.130 233.099 Q -1173.139 233.099 -1173.160 233.099 Q -1173.181 233.099 -1173.213 233.098 "></path>
    <path id="STROKE_9e4a1256-a443-4000-a577-1ece3ad713ae" opacity="1.000" fill="none" stroke="#474444" stroke-width="2.953" stroke-opacity="1.000" stroke-linecap="round" stroke-linejoin="round" d="M -1248.096 205.093 Q -1248.117 205.319 -1248.714 206.675 Q -1249.312 208.031 -1249.781 209.530 Q -1250.249 211.029 -1250.375 211.729 Q -1250.501 212.429 -1250.544 212.727 Q -1250.588 213.024 -1250.950 214.247 Q -1251.312 215.470 -1251.566 216.103 Q -1251.819 216.736 -1252.106 217.940 Q -1252.393 219.145 -1252.722 220.109 Q -1253.052 221.074 -1253.243 221.558 Q -1253.433 222.041 -1253.491 222.346 Q -1253.548 222.650 -1253.608 222.995 Q -1253.668 223.340 -1253.648 223.181 Q -1253.629 223.023 -1253.752 223.926 Q -1253.874 224.829 -1253.971 225.767 Q -1254.067 226.705 -1254.202 227.703 Q -1254.337 228.701 -1254.452 229.820 Q -1254.567 230.938 -1254.700 231.789 Q -1254.833 232.640 -1254.892 234.373 Q -1254.951 236.106 -1254.860 237.452 Q -1254.770 238.798 -1254.648 240.271 Q -1254.525 241.745 -1254.528 242.487 Q -1254.531 243.229 -1253.818 244.449 Q -1253.106 245.670 -1252.639 246.432 Q -1252.171 247.193 -1251.858 248.099 Q -1251.544 249.005 -1251.297 249.832 Q -1251.049 250.660 -1250.283 250.982 Q -1249.516 251.304 -1249.345 251.318 "></path>
    <path id="STROKE_6f87cf8c-82af-4ed7-9e25-a87b8171c56d" opacity="1.000" fill="none" stroke="#474444" stroke-width="2.953" stroke-opacity="1.000" stroke-linecap="round" stroke-linejoin="round" d="M -1207.082 203.789 Q -1207.032 203.879 -1206.857 204.103 Q -1206.682 204.327 -1206.360 204.887 Q -1206.038 205.447 -1205.807 205.927 Q -1205.577 206.406 -1205.461 206.657 Q -1205.346 206.907 -1205.250 207.118 Q -1205.154 207.328 -1205.012 207.609 Q -1204.871 207.890 -1204.161 208.836 Q -1203.451 209.781 -1203.030 210.647 Q -1202.610 211.513 -1202.030 213.356 Q -1201.450 215.200 -1200.982 217.233 Q -1200.514 219.266 -1200.425 220.353 Q -1200.335 221.439 -1199.878 223.956 Q -1199.420 226.473 -1199.154 228.693 Q -1198.889 230.913 -1198.889 232.139 Q -1198.890 233.365 -1198.823 234.142 Q -1198.757 234.918 -1198.733 237.414 Q -1198.708 239.910 -1198.861 241.895 Q -1199.013 243.880 -1199.248 244.794 Q -1199.483 245.707 -1199.487 245.966 Q -1199.490 246.225 -1199.745 247.165 Q -1200.000 248.105 -1200.139 248.586 Q -1200.279 249.067 -1200.367 249.339 Q -1200.454 249.611 -1200.556 249.804 Q -1200.657 249.998 -1200.646 249.979 Q -1200.635 249.960 -1200.654 250.033 Q -1200.673 250.105 -1200.854 250.121 Q -1201.035 250.137 -1201.054 250.099 "></path>
    <path id="STROKE_04027fac-13be-49c8-9846-683ab25ca074" opacity="1.000" fill="none" stroke="#474444" stroke-width="2.953" stroke-opacity="1.000" stroke-linecap="round" stroke-linejoin="round" d="M -1246.952 243.033 Q -1247.042 243.075 -1247.016 243.065 Q -1247.054 243.115 -1247.053 243.105 Q -1247.211 243.166 -1247.157 243.145 Q -1247.282 243.189 -1247.253 243.182 Q -1247.295 243.193 -1247.355 243.267 Q -1247.184 243.280 -1247.235 243.275 Q -1247.115 243.276 -1247.121 243.276 Q -1247.128 243.282 -1246.490 243.271 Q -1245.851 243.260 -1245.487 243.279 Q -1245.123 243.298 -1244.593 243.315 Q -1244.064 243.331 -1243.110 243.360 Q -1242.157 243.389 -1241.554 243.442 Q -1240.951 243.495 -1240.580 243.507 Q -1240.209 243.519 -1239.739 243.529 Q -1239.269 243.540 -1238.795 243.540 Q -1238.322 243.541 -1238.102 243.565 Q -1237.882 243.589 -1237.403 243.609 Q -1236.924 243.629 -1235.921 243.750 Q -1234.918 243.871 -1234.139 243.919 Q -1233.360 243.967 -1232.805 243.995 Q -1232.251 244.024 -1231.856 244.072 Q -1231.462 244.120 -1231.251 244.137 Q -1231.040 244.154 -1230.497 244.185 Q -1229.953 244.216 -1228.750 244.110 Q -1227.546 244.004 -1226.906 243.951 Q -1226.266 243.898 -1225.795 243.898 Q -1225.324 243.897 -1224.470 243.901 Q -1223.616 243.905 -1222.814 243.918 Q -1222.011 243.931 -1220.871 243.944 Q -1219.730 243.957 -1219.147 243.937 Q -1218.563 243.917 -1218.071 243.881 Q -1217.579 243.845 -1216.819 243.772 Q -1216.058 243.700 -1215.041 243.669 Q -1214.024 243.638 -1213.105 243.687 Q -1212.187 243.736 -1211.716 243.813 Q -1211.245 243.889 -1210.818 243.912 Q -1210.391 243.934 -1209.982 243.935 Q -1209.574 243.936 -1209.325 243.943 Q -1209.077 243.950 -1208.751 243.974 "></path>
    <path id="STROKE_7bff24df-a9b6-441c-af8e-e84063fdc14f" opacity="1.000" fill="none" stroke="#474444" stroke-width="2.953" stroke-opacity="1.000" stroke-linecap="round" stroke-linejoin="round" d="M -1242.175 217.768 Q -1242.175 217.768 -1242.173 217.758 Q -1242.170 217.748 -1242.174 217.875 Q -1242.177 218.002 -1242.181 218.071 Q -1242.184 218.141 -1242.188 218.229 Q -1242.193 218.316 -1242.257 218.693 Q -1242.321 219.070 -1242.385 220.658 Q -1242.450 222.246 -1242.469 223.098 Q -1242.487 223.949 -1242.483 224.384 Q -1242.479 224.818 -1242.504 225.136 Q -1242.528 225.454 -1242.493 226.288 Q -1242.458 227.123 -1242.402 227.931 Q -1242.346 228.739 -1242.340 229.157 Q -1242.334 229.576 -1242.250 230.791 Q -1242.167 232.007 -1242.117 233.005 Q -1242.067 234.002 -1241.981 234.776 Q -1241.894 235.550 -1241.843 235.919 Q -1241.792 236.288 -1241.796 236.592 Q -1241.800 236.896 -1241.769 237.363 Q -1241.739 237.831 -1241.708 238.316 Q -1241.677 238.802 -1241.677 238.813 "></path>
    <path id="STROKE_07c0fd40-0897-4e0d-87b4-5c284a6ad31f" opacity="1.000" fill="none" stroke="#474444" stroke-width="2.953" stroke-opacity="1.000" stroke-linecap="round" stroke-linejoin="round" d="M -1235.984 209.668 Q -1236.005 209.675 -1235.979 210.227 Q -1235.954 210.780 -1235.959 211.855 Q -1235.965 212.930 -1235.952 213.612 Q -1235.939 214.293 -1235.912 215.116 Q -1235.885 215.939 -1235.911 217.416 Q -1235.937 218.892 -1235.967 219.685 Q -1235.997 220.478 -1236.009 221.025 Q -1236.021 221.573 -1236.038 222.075 Q -1236.055 222.577 -1236.065 223.001 Q -1236.074 223.426 -1236.093 224.568 Q -1236.111 225.710 -1236.149 227.007 Q -1236.187 228.303 -1236.179 228.996 Q -1236.171 229.688 -1236.146 229.997 Q -1236.120 230.305 -1236.043 230.750 Q -1235.966 231.195 -1235.889 232.097 Q -1235.812 232.999 -1235.680 233.772 Q -1235.548 234.544 -1235.470 235.178 Q -1235.391 235.813 -1235.342 236.178 Q -1235.293 236.544 -1235.215 236.967 Q -1235.138 237.391 -1235.113 237.611 Q -1235.089 237.832 -1235.068 238.058 Q -1235.047 238.285 -1234.969 238.584 Q -1234.962 238.584 -1234.951 238.570 "></path>
    <path id="STROKE_d87c1773-66ca-449f-9c9c-bcbfcae28e58" opacity="1.000" fill="none" stroke="#474444" stroke-width="2.953" stroke-opacity="1.000" stroke-linecap="round" stroke-linejoin="round" d="M -1230.732 226.600 Q -1230.721 226.630 -1230.750 228.011 Q -1230.780 229.392 -1230.809 230.167 Q -1230.838 230.942 -1230.799 231.322 Q -1230.760 231.702 -1230.768 232.151 Q -1230.777 232.600 -1230.777 233.193 Q -1230.777 233.785 -1230.669 234.582 Q -1230.561 235.378 -1230.301 237.938 "></path>
    <path id="STROKE_93070cd9-366a-4dd3-aa3d-d8252ddd2b03" opacity="1.000" fill="none" stroke="#474444" stroke-width="2.953" stroke-opacity="1.000" stroke-linecap="round" stroke-linejoin="round" d="M -1223.400 213.865 Q -1223.424 213.993 -1223.421 213.987 Q -1223.448 214.016 -1223.500 215.071 Q -1223.552 216.126 -1223.500 216.932 Q -1223.447 217.738 -1223.316 218.868 Q -1223.184 219.999 -1223.109 220.557 Q -1223.033 221.115 -1223.039 221.756 Q -1223.046 222.397 -1223.052 222.841 Q -1223.059 223.285 -1223.018 223.952 Q -1222.978 224.619 -1222.906 225.241 Q -1222.835 225.864 -1222.764 227.216 Q -1222.693 228.568 -1222.650 229.293 Q -1222.606 230.018 -1222.576 230.693 Q -1222.545 231.369 -1222.562 232.400 Q -1222.579 233.430 -1222.504 234.542 Q -1222.428 235.654 -1222.375 236.228 Q -1222.321 236.803 -1222.351 237.349 Q -1222.382 237.894 -1222.298 238.581 L -1222.294 238.581 Q -1222.289 238.567 -1222.284 238.527 Q -1222.289 238.541 -1222.289 238.567 Q -1222.284 238.527 -1222.284 238.501 "></path>
    <path id="STROKE_387ebf0f-acba-4993-9f17-216bf3d5bf9c" opacity="1.000" fill="none" stroke="#474444" stroke-width="2.953" stroke-opacity="1.000" stroke-linecap="round" stroke-linejoin="round" d="M -1215.587 233.210 Q -1215.662 233.302 -1215.536 233.932 Q -1215.411 234.562 -1215.402 235.319 Q -1215.393 236.077 -1215.400 236.575 Q -1215.407 237.074 -1215.438 237.469 Q -1215.469 237.865 -1215.473 237.909 "></path>
    <path id="STROKE_c6afe320-2849-413e-9c1b-f0353f7252d5" opacity="1.000" fill="none" stroke="#474444" stroke-width="2.953" stroke-opacity="1.000" stroke-linecap="round" stroke-linejoin="round" d="M -1270.667 187.941 L -1270.762 198.339 L -1270.892 212.655 "></path>
    <path id="STROKE_fbecaed6-c5d6-4fbc-a07e-49bf74994150" opacity="1.000" fill="none" stroke="#474444" stroke-width="2.953" stroke-opacity="1.000" stroke-linecap="round" stroke-linejoin="round" d="M -1271.189 245.121 L -1271.192 245.427 L -1271.284 255.604 L -1271.415 269.920 "></path>
    <path id="STROKE_d1184c9c-dce2-4619-adc2-d8b91382ce77" opacity="1.000" fill="none" stroke="#474444" stroke-width="2.953" stroke-opacity="1.000" stroke-linecap="round" stroke-linejoin="round" d="M -1271.415 269.920 L -1271.415 269.920 L -1257.099 270.050 L -1242.783 270.181 L -1228.467 270.311 L -1214.151 270.442 L -1199.835 270.573 L -1185.519 270.703 "></path>
    <path id="STROKE_4eeca835-8796-41fe-bc8c-588ae8328bb3" opacity="1.000" fill="none" stroke="#474444" stroke-width="2.953" stroke-opacity="1.000" stroke-linecap="round" stroke-linejoin="round" d="M -1185.269 243.371 L -1185.270 243.403 L -1185.349 252.065 L -1185.388 256.387 L -1185.519 270.703 "></path>
    <path id="STROKE_c8907c88-56eb-4f33-9d18-305c5309f754" opacity="1.000" fill="none" stroke="#474444" stroke-width="2.953" stroke-opacity="1.000" stroke-linecap="round" stroke-linejoin="round" d="M -1184.996 213.439 L -1184.866 199.123 L -1184.791 190.954 "></path>
    <path id="STROKE_2d8db48f-b66c-4aad-b3a4-80465101b2fa" opacity="1.000" fill="none" stroke="#474444" stroke-width="2.953" stroke-opacity="1.000" stroke-linecap="round" stroke-linejoin="round" d="M -1270.631 184.023 L -1256.315 184.154 L -1241.999 184.285 L -1227.683 184.415 L -1213.367 184.546 L -1199.051 184.676 L -1184.735 184.807 "></path>
    <path id="STROKE_fa9843ff-b059-4d85-a99a-040ca4347894" opacity="1.000" fill="none" stroke="#474444" stroke-width="2.953" stroke-opacity="1.000" stroke-linecap="round" stroke-linejoin="round" d="M -1184.735 184.807 L -1184.797 191.567 "></path>
    <path id="STROKE_3e39238b-07d9-4460-a89f-9011a336ad28" opacity="1.000" fill="none" stroke="#474444" stroke-width="2.953" stroke-opacity="1.000" stroke-linecap="round" stroke-linejoin="round" d="M -1270.631 184.023 L -1270.680 189.343 "></path>
  </g>
</svg>